<svg xmlns="http://www.w3.org/2000/svg" viewBox="0 0 370 219">
  <path d="M 283 173 L 283 206 L 284 207 L 284 210 L 285 212 L 290 217 L 292 217 L 293 218 L 303 218 L 307 216 L 309 214 L 310 215 L 310 217 L 322 217 L 322 173 L 310 173 L 310 204 L 306 208 L 304 208 L 303 209 L 300 209 L 295 205 L 295 173 Z M 247 173 L 243 175 L 237 181 L 235 185 L 235 188 L 234 189 L 234 202 L 235 203 L 235 205 L 238 211 L 241 214 L 242 214 L 246 217 L 248 217 L 249 218 L 261 218 L 262 217 L 264 217 L 266 216 L 273 209 L 274 207 L 274 205 L 276 201 L 276 190 L 275 189 L 275 186 L 272 180 L 267 175 L 263 173 L 260 173 L 259 172 L 251 172 L 250 173 Z M 251 182 L 258 182 L 260 183 L 262 185 L 263 189 L 264 190 L 264 201 L 262 205 L 257 209 L 253 209 L 251 208 L 247 204 L 246 202 L 246 189 L 248 185 Z M 95 173 L 91 176 L 90 176 L 86 180 L 83 186 L 83 189 L 82 190 L 82 201 L 83 202 L 83 205 L 85 209 L 91 215 L 95 217 L 97 217 L 98 218 L 110 218 L 111 217 L 113 217 L 117 215 L 121 211 L 120 208 L 116 204 L 115 204 L 111 208 L 103 209 L 102 208 L 100 208 L 95 203 L 94 200 L 95 199 L 122 199 L 122 187 L 121 186 L 120 181 L 116 176 L 115 176 L 113 174 L 111 174 L 107 172 L 99 172 L 98 173 Z M 94 189 L 96 185 L 100 182 L 106 182 L 108 183 L 110 185 L 110 187 L 111 188 L 111 190 L 110 191 L 95 191 Z M 132 162 L 132 172 L 131 173 L 125 173 L 125 181 L 130 181 L 132 183 L 132 211 L 133 213 L 137 217 L 139 218 L 150 218 L 151 217 L 151 208 L 147 209 L 145 208 L 143 205 L 143 182 L 144 181 L 151 181 L 151 173 L 144 173 L 143 172 L 143 162 Z M 175 157 L 174 158 L 172 158 L 168 160 L 162 166 L 158 174 L 158 178 L 157 179 L 157 196 L 158 197 L 158 201 L 162 209 L 168 215 L 172 217 L 175 217 L 176 218 L 188 218 L 189 217 L 192 217 L 196 215 L 199 212 L 200 212 L 200 211 L 204 206 L 206 198 L 193 198 L 193 202 L 191 204 L 191 205 L 186 208 L 178 208 L 174 206 L 171 202 L 171 200 L 170 199 L 170 195 L 169 194 L 169 181 L 170 180 L 170 176 L 171 175 L 171 173 L 176 168 L 178 167 L 187 167 L 192 171 L 193 173 L 193 177 L 194 178 L 206 178 L 206 176 L 205 175 L 205 172 L 204 171 L 203 167 L 200 164 L 200 163 L 196 160 L 192 158 L 190 158 L 189 157 Z M 23 157 L 19 165 L 18 170 L 16 173 L 15 178 L 13 181 L 12 186 L 10 189 L 9 194 L 7 197 L 6 202 L 4 205 L 4 207 L 3 208 L 3 210 L 2 211 L 2 213 L 0 217 L 13 217 L 14 213 L 15 212 L 15 210 L 16 209 L 16 207 L 18 205 L 38 205 L 40 207 L 40 209 L 41 210 L 41 212 L 42 213 L 43 217 L 56 217 L 54 213 L 53 208 L 51 205 L 50 200 L 48 197 L 47 192 L 45 189 L 44 184 L 42 181 L 41 176 L 39 173 L 38 168 L 36 165 L 36 163 L 35 162 L 34 158 L 33 157 Z M 28 174 L 29 175 L 29 177 L 30 178 L 30 180 L 31 181 L 33 189 L 35 192 L 35 194 L 34 195 L 22 195 L 21 194 L 21 192 L 22 191 L 22 189 L 23 188 L 23 186 L 24 185 L 26 177 Z M 369 154 L 357 154 L 357 175 L 356 176 L 354 174 L 350 173 L 349 172 L 343 172 L 342 173 L 340 173 L 336 175 L 334 177 L 330 184 L 330 187 L 329 188 L 329 202 L 330 203 L 330 206 L 333 212 L 337 216 L 339 217 L 341 217 L 342 218 L 350 218 L 351 217 L 353 217 L 357 214 L 358 215 L 358 217 L 369 217 Z M 346 182 L 353 182 L 357 186 L 357 204 L 355 207 L 351 209 L 348 209 L 344 207 L 341 202 L 341 189 L 342 188 L 342 186 Z M 214 154 L 214 217 L 226 217 L 226 155 L 225 154 Z M 62 154 L 62 217 L 74 217 L 74 155 L 73 154 Z M 276 64 L 270 52 L 258 41 L 252 38 L 246 37 L 243 47 L 240 37 L 232 23 L 219 11 L 207 5 L 199 3 L 186 2 L 169 6 L 155 14 L 146 23 L 138 36 L 131 36 L 130 35 L 120 36 L 105 43 L 96 52 L 90 64 L 89 84 L 91 91 L 96 100 L 108 111 L 121 116 L 245 116 L 254 113 L 262 108 L 269 101 L 273 95 L 277 84 Z M 200 37 L 200 41 L 193 48 L 193 49 L 187 55 L 187 56 L 181 62 L 181 63 L 175 69 L 175 70 L 172 72 L 169 72 L 167 70 L 167 69 L 160 62 L 160 61 L 154 55 L 154 51 L 155 50 L 159 50 L 168 60 L 168 61 L 170 63 L 172 63 L 173 61 L 179 55 L 179 54 L 186 47 L 186 46 L 195 36 L 199 36 Z" fill="#04852c" fill-rule="evenodd"/>
</svg>