<svg width="63" height="57" viewBox="0 0 63 57" fill="none" xmlns="http://www.w3.org/2000/svg">
<g clip-path="url(#clip0_1_2185)">
<path d="M31.3457 22.0674C28.0412 22.0674 25.3623 24.7462 25.3623 28.0508C25.3623 31.3553 28.0412 34.0342 31.3457 34.0342C34.6503 34.0342 37.3291 31.3553 37.3291 28.0508C37.3291 24.7462 34.6503 22.0674 31.3457 22.0674Z" fill="#8F8F8F"/>
<path d="M62.4661 28.105C62.4661 23.4075 58.1161 19.2876 51.19 16.5763C51.2826 15.9657 51.3663 15.3617 51.4258 14.7687C52.109 8.01904 50.4827 3.14745 46.8488 1.04892C42.7831 -1.29869 37.0404 0.405258 31.2338 5.052C25.4272 0.405258 19.6845 -1.29869 15.6187 1.04892C11.9849 3.14745 10.3586 8.01904 11.0417 14.7687C11.1012 15.3617 11.1828 15.9679 11.2775 16.5807C10.7002 16.8011 10.1338 17.0348 9.58954 17.2795C3.4061 20.0591 0.00146484 23.9079 0.00146484 28.105C0.00146484 32.8024 4.35147 36.9223 11.2775 39.6337C11.1828 40.2443 11.1012 40.8482 11.0417 41.4412C10.3586 48.1909 11.9849 53.0625 15.6187 55.161C16.8681 55.8695 18.2838 56.2317 19.7197 56.2103C23.1618 56.2103 27.1813 54.3983 31.2338 51.1579C35.2841 54.3983 39.3058 56.2103 42.7523 56.2103C44.1882 56.2313 45.6038 55.8692 46.8533 55.161C50.4871 53.0625 52.1134 48.1909 51.4302 41.4412C51.3707 40.8482 51.287 40.2443 51.1944 39.6337C58.1205 36.9267 62.4705 32.8002 62.4705 28.105M42.7258 2.97552C43.6491 2.95324 44.5618 3.1769 45.3702 3.62359C47.8934 5.08066 49.0261 9.03304 48.4751 14.4667C48.4377 14.8371 48.3936 15.2118 48.3407 15.5887C45.4608 14.7212 42.5118 14.1024 39.5261 13.7393C37.7162 11.3327 35.7035 9.08562 33.5102 7.02268C36.9545 4.35984 40.1872 2.97552 42.7236 2.97552M41.5403 34.0567C40.4257 35.9917 39.2121 37.8679 37.9042 39.6777C35.6873 39.9055 33.4602 40.0188 31.2316 40.0172C29.0037 40.0188 26.7773 39.9055 24.5611 39.6777C23.2567 37.8678 22.0468 35.9916 20.9361 34.0567C19.8217 32.127 18.8088 30.1404 17.9017 28.105C18.8088 26.0695 19.8217 24.0829 20.9361 22.1533C22.045 20.2261 23.2513 18.3566 24.5501 16.552C26.7703 16.3186 29.0013 16.2023 31.2338 16.2037C33.4616 16.2024 35.688 16.3157 37.9042 16.5432C39.2076 18.3505 40.4182 20.223 41.5314 22.1533C42.645 24.0834 43.6579 26.0699 44.5659 28.105C43.6579 30.14 42.645 32.1265 41.5314 34.0567M46.082 31.8523C46.7814 33.76 47.3555 35.7113 47.8008 37.6938C45.8684 38.2965 43.8985 38.7714 41.9039 39.1156C42.6619 37.9723 43.3965 36.7827 44.1075 35.5468C44.8105 34.3256 45.4694 33.0934 46.0908 31.8612M27.0491 42.8586C28.4197 42.9424 29.819 42.9909 31.236 42.9909C32.6529 42.9909 34.0611 42.9424 35.4339 42.8586C34.1323 44.4182 32.7299 45.8909 31.236 47.2673C29.7453 45.8911 28.3466 44.4184 27.0491 42.8586ZM20.5659 39.1112C18.5706 38.7685 16.6 38.2951 14.6668 37.6938C15.1103 35.7145 15.6822 33.7661 16.379 31.8612C16.9916 33.0934 17.6483 34.3256 18.3623 35.5468C19.0763 36.768 19.8145 37.9716 20.5659 39.1156M16.379 24.3466C15.6847 22.4487 15.1142 20.5077 14.6712 18.5359C16.5996 17.934 18.5649 17.4576 20.5549 17.1097C19.8013 18.2494 19.063 19.4309 18.3513 20.6631C17.6395 21.8953 16.9894 23.1121 16.368 24.3466M35.4207 13.3491C34.0501 13.2654 32.6507 13.2169 31.2228 13.2169C29.8066 13.2169 28.4109 13.261 27.0358 13.3491C28.3334 11.7894 29.732 10.3166 31.2228 8.94045C32.7173 10.3163 34.1196 11.789 35.4207 13.3491ZM44.1031 20.6631C43.3891 19.4258 42.6509 18.2354 41.8884 17.0921C43.8884 17.4363 45.8634 17.912 47.8008 18.5161C47.3563 20.4952 46.7844 22.4435 46.0886 24.3488C45.476 23.1166 44.8171 21.8843 44.1053 20.6653M14.0012 14.4689C13.4437 9.03744 14.583 5.08286 17.104 3.6258C17.9127 3.1798 18.8251 2.95618 19.7484 2.97772C22.2848 2.97772 25.5175 4.36204 28.9618 7.02488C26.767 9.08929 24.7529 11.3378 22.9415 13.7459C19.9566 14.1108 17.0079 14.7272 14.1269 15.5887C14.0762 15.2118 14.0299 14.8393 13.9946 14.4689M10.8104 19.993C11.1497 19.846 11.4957 19.6991 11.8483 19.5521C12.5414 22.4774 13.4814 25.3386 14.6579 28.105C13.4791 30.8768 12.5385 33.7439 11.8461 36.6754C6.23118 34.3719 2.97639 31.18 2.97639 28.105C2.97639 25.1908 5.84114 22.2348 10.8104 19.993ZM17.104 52.5841C14.583 51.1271 13.4437 47.1725 14.0012 41.741C14.0365 41.3707 14.0828 40.9981 14.1335 40.619C17.0134 41.4863 19.9624 42.1051 22.9481 42.4684C24.7586 44.8759 26.7712 47.1244 28.964 49.1895C24.1623 52.8994 19.7748 54.1228 17.1106 52.5841M48.4729 41.741C49.0238 47.1747 47.8912 51.1271 45.368 52.5841C42.706 54.1272 38.3163 52.8994 33.5168 49.1895C35.7089 47.1244 37.7208 44.8759 39.5305 42.4684C42.5162 42.1053 45.4652 41.4865 48.3451 40.619C48.398 40.9981 48.4421 41.3707 48.4795 41.741M50.6347 36.671C49.9404 33.7412 48.999 30.8756 47.8207 28.105C48.9985 25.3328 49.9391 22.4657 50.6325 19.5345C56.2364 21.838 59.5 25.0299 59.5 28.105C59.5 31.18 56.2452 34.3719 50.6303 36.6754" fill="#8F8F8F"/>
</g>
<defs>
<clipPath id="clip0_1_2185">
<rect width="62.4691" height="56.2112" fill="white"/>
</clipPath>
</defs>
</svg>
