<svg width="56" height="56" viewBox="0 0 56 56" fill="none" xmlns="http://www.w3.org/2000/svg">
<g clip-path="url(#clip0_1_2172)">
<path d="M50.9951 0.838867L46.7197 49.0996L27.6328 54.499L8.6582 49.0977L4.37793 0.838867H50.9951ZM11.6504 10.2471L13.2607 28.7275L13.3281 29.4941H34.2295L33.6201 35.9043L27.6846 37.5439L21.6523 35.8896L21.2705 31.6035L21.2021 30.8389H13.5078L13.5791 31.7441L14.3408 41.3672L14.3867 41.958L14.96 42.1113L27.4697 45.457L27.6865 45.5146L27.9033 45.4561L40.3135 42.127L40.8789 41.9756L40.9316 41.3936L42.6484 22.5732L42.7324 21.6582H20.4531L20.0605 17.0635L42.3555 17.0703H43.124L43.1914 16.3047L43.7217 10.2549L43.8018 9.34277H42.8857L12.4863 9.33594H11.5713L11.6504 10.2471Z" stroke="#8F8F8F" stroke-width="1.67795"/>
</g>
<defs>
<clipPath id="clip0_1_2172">
<rect width="55.3722" height="55.3722" fill="white"/>
</clipPath>
</defs>
</svg>
