<svg width="56" height="56" viewBox="0 0 56 56" fill="none" xmlns="http://www.w3.org/2000/svg">
<path d="M49.5285 15.7436C51.4715 19.2889 52.5772 23.3575 52.5772 27.6853C52.5772 36.8686 47.6005 44.8861 40.2002 49.2008L47.8029 27.2189C49.2229 23.6677 49.6958 20.8282 49.6958 18.3034C49.6958 17.3869 49.6355 16.5364 49.5285 15.7436ZM31.1162 16.0146C32.6148 15.9358 33.9651 15.7782 33.9651 15.7782C35.3064 15.6194 35.1482 13.6483 33.8063 13.7268C33.8063 13.7268 29.7744 14.0432 27.1716 14.0432C24.7259 14.0432 20.616 13.7268 20.616 13.7268C19.2736 13.6483 19.1163 15.6988 20.4581 15.7782C20.4581 15.7782 21.7279 15.9358 23.0691 16.0146L26.9469 26.6405L21.4988 42.9777L12.4347 16.0146C13.9345 15.9358 15.2833 15.7782 15.2833 15.7782C16.6237 15.6194 16.4655 13.6483 15.1242 13.7268C15.1242 13.7268 11.0932 14.0432 8.49011 14.0432C8.02311 14.0432 7.47261 14.0318 6.88813 14.013C11.339 7.25587 18.9891 2.79358 27.6858 2.79358C34.1658 2.79358 40.0663 5.27126 44.4946 9.32896C44.3874 9.32252 44.2828 9.30904 44.1724 9.30904C41.7272 9.30904 39.9922 11.439 39.9922 13.7268C39.9922 15.7782 41.1758 17.5138 42.4374 19.5649C43.384 21.2229 44.4897 23.3525 44.4897 26.4299C44.4897 28.5601 43.6702 31.0325 42.5956 34.4767L40.112 42.7723L31.1162 16.0146ZM27.6858 52.579C25.2424 52.579 22.8842 52.2207 20.6535 51.5648L28.1229 29.8627L35.7737 50.8247C35.8241 50.9478 35.8859 51.0611 35.9518 51.1678C33.3645 52.0786 30.5845 52.579 27.6858 52.579ZM2.7941 27.6853C2.7941 24.0764 3.56814 20.6507 4.94951 17.5551L16.8235 50.0876C8.51912 46.0533 2.7941 37.538 2.7941 27.6853ZM27.6858 6.48499e-05C12.4198 6.48499e-05 0 12.4196 0 27.6853C0 42.9516 12.4198 55.3726 27.6858 55.3726C42.9515 55.3726 55.3719 42.9516 55.3719 27.6853C55.3719 12.4196 42.9515 6.48499e-05 27.6858 6.48499e-05Z" fill="#8F8F8F"/>
</svg>
