<svg width="55" height="57" viewBox="0 0 55 57" fill="none" xmlns="http://www.w3.org/2000/svg">
<g clip-path="url(#clip0_1_2174)">
<path fill-rule="evenodd" clip-rule="evenodd" d="M53.6444 12.5004C53.6643 12.574 53.6745 12.65 53.6747 12.7263V24.5868C53.6747 24.7391 53.6345 24.8886 53.5582 25.0203C53.4819 25.1521 53.3722 25.2613 53.2401 25.337L43.2854 31.0684V42.4285C43.2854 42.7376 43.121 43.023 42.853 43.1787L22.0732 55.1409C22.0256 55.1679 21.9738 55.1852 21.9219 55.2036C21.9024 55.21 21.884 55.2219 21.8635 55.2273C21.7182 55.2656 21.5655 55.2656 21.4203 55.2273C21.3965 55.2208 21.3749 55.2079 21.3522 55.1992C21.3046 55.1819 21.2549 55.1668 21.2095 55.1409L0.434067 43.1787C0.302087 43.1029 0.192425 42.9936 0.116133 42.8619C0.0398415 42.7302 -0.000383708 42.5807 -0.000488281 42.4285L-0.000488281 6.84681C-0.000488281 6.76898 0.0103216 6.69331 0.0297793 6.61981C0.0362652 6.59494 0.051399 6.57224 0.0600468 6.54738C0.0762616 6.50198 0.0913954 6.4555 0.115177 6.41334C0.131392 6.38523 0.155173 6.36253 0.174631 6.33659C0.199494 6.302 0.222194 6.26632 0.251381 6.23606C0.276244 6.21119 0.308673 6.19282 0.336779 6.1712C0.368127 6.14526 0.396233 6.11715 0.431905 6.09661L10.8212 0.115526C10.9528 0.0398362 11.1019 0 11.2536 0C11.4054 0 11.5545 0.0398362 11.686 0.115526L22.0743 6.09661H22.0764C22.111 6.11823 22.1402 6.14526 22.1716 6.17012C22.1997 6.19174 22.231 6.21119 22.2559 6.23498C22.2862 6.26632 22.3078 6.302 22.3337 6.33659C22.3521 6.36253 22.377 6.38523 22.3921 6.41334C22.417 6.45658 22.431 6.50198 22.4483 6.54738C22.457 6.57224 22.4721 6.59494 22.4786 6.62089C22.4985 6.69455 22.5087 6.77051 22.5088 6.84681V29.0708L31.1654 24.0863V12.7252C31.1654 12.6495 31.1762 12.5728 31.1956 12.5004C31.2032 12.4744 31.2172 12.4517 31.2259 12.4269C31.2432 12.3815 31.2583 12.335 31.2821 12.2928C31.2983 12.2647 31.3221 12.242 31.3405 12.2161C31.3664 12.1815 31.388 12.1458 31.4183 12.1155C31.4432 12.0907 31.4745 12.0723 31.5026 12.0507C31.5351 12.0247 31.5632 11.9966 31.5978 11.9761L41.9882 5.995C42.1197 5.9192 42.2688 5.87931 42.4206 5.87931C42.5723 5.87931 42.7215 5.9192 42.853 5.995L53.2412 11.9761C53.278 11.9977 53.3061 12.0247 53.3385 12.0496C53.3655 12.0712 53.3969 12.0907 53.4217 12.1144C53.452 12.1458 53.4736 12.1815 53.4996 12.2161C53.519 12.242 53.5428 12.2647 53.5579 12.2928C53.5828 12.335 53.5969 12.3815 53.6142 12.4269C53.6239 12.4517 53.6379 12.4744 53.6444 12.5004ZM51.943 24.0863V14.2234L48.3076 16.3162L43.2854 19.2079V29.0708L51.944 24.0863H51.943ZM41.5547 41.928V32.0586L36.6146 34.88L22.5078 42.9311V52.8935L41.5547 41.928ZM1.73125 8.34398V41.928L20.776 52.8924V42.9322L10.8266 37.3014L10.8234 37.2992L10.8191 37.2971C10.7856 37.2776 10.7575 37.2495 10.7261 37.2257C10.6991 37.2041 10.6677 37.1868 10.644 37.163L10.6418 37.1598C10.6137 37.1327 10.5942 37.0992 10.5705 37.069C10.5488 37.0398 10.5229 37.0149 10.5056 36.9846L10.5045 36.9814C10.4851 36.949 10.4732 36.9101 10.4591 36.8733C10.4451 36.8409 10.4267 36.8106 10.418 36.776C10.4072 36.7349 10.4051 36.6906 10.4007 36.6485C10.3964 36.616 10.3878 36.5836 10.3878 36.5512V36.549V13.3284L5.3666 10.4357L1.73125 8.34398ZM11.2547 1.86456L2.59928 6.84681L11.2526 11.8291L19.9069 6.84573L11.2526 1.86456H11.2547ZM15.7559 32.958L20.7771 30.0674V8.34398L17.1418 10.4368L12.1195 13.3284V35.0518L15.7559 32.958ZM42.4206 7.74403L33.7662 12.7263L42.4206 17.7085L51.0738 12.7252L42.4206 7.74403ZM41.5547 19.2079L36.5324 16.3162L32.8971 14.2234V24.0863L37.9183 26.9769L41.5547 29.0708V19.2079ZM21.6408 41.434L34.3348 34.1871L40.6802 30.5658L32.0323 25.5868L22.0754 31.3192L13.0005 36.5436L21.6408 41.434Z" fill="#8F8F8F"/>
</g>
<defs>
<clipPath id="clip0_1_2174">
<rect width="54.0492" height="56.2112" fill="white"/>
</clipPath>
</defs>
</svg>
