<svg width="41" height="38" viewBox="0 0 41 38" fill="none" xmlns="http://www.w3.org/2000/svg">
<path d="M7.62691 0.0508543C10.7705 -0.301386 12.5502 1.20074 13.8737 3.79507C17.1948 10.3051 20.6597 16.7417 24.0659 23.2083C24.1874 23.4391 24.289 23.6841 24.5869 23.7382C26.3939 21.5922 26.3671 20.8367 25.0261 18.3619C21.9975 12.7726 19.0647 7.13144 16.1007 1.50729C15.9449 1.21179 15.7181 0.913045 15.8974 0.418633C24.008 0.418633 32.1562 0.418633 40.5793 0.418633C38.9732 3.8756 37.2336 6.99947 35.4408 10.1686C34.4272 9.58444 34.2556 8.6676 33.8146 7.96543C33.0803 6.7964 32.4254 5.57205 31.8132 4.33335C31.2271 3.14741 30.3573 2.84609 29.1374 3.23095C28.8837 4.03772 29.4604 4.56125 29.7614 5.14144C30.8363 7.21323 31.9663 9.25633 33.0614 11.3178C33.6256 12.38 33.6758 13.5141 33.1258 14.558C30.5865 19.3777 27.9872 24.1659 25.4314 28.9771C24.1728 31.3462 22.9656 33.7427 21.7268 36.1224C21.3769 36.7946 21.0897 37.5271 20.1762 38C13.4802 25.4181 6.81645 12.8967 0 0.088429C2.73334 0.241079 5.13152 0.551614 7.62691 0.0508543Z" fill="#3E3E3E"/>
<path d="M7.62691 0.0508543C10.7705 -0.301386 12.5502 1.20074 13.8737 3.79507C17.1948 10.3051 20.6597 16.7417 24.0659 23.2083C24.1874 23.4391 24.289 23.6841 24.5869 23.7382C26.3939 21.5922 26.3671 20.8367 25.0261 18.3619C21.9975 12.7726 19.0647 7.13144 16.1007 1.50729C15.9449 1.21179 15.7181 0.913045 15.8974 0.418633C24.008 0.418633 32.1562 0.418633 40.5793 0.418633C38.9732 3.8756 37.2336 6.99947 35.4408 10.1686C34.4272 9.58444 34.2556 8.6676 33.8146 7.96543C33.0803 6.7964 32.4254 5.57205 31.8132 4.33335C31.2271 3.14741 30.3573 2.84609 29.1374 3.23095C28.8837 4.03772 29.4604 4.56125 29.7614 5.14144C30.8363 7.21323 31.9663 9.25633 33.0614 11.3178C33.6256 12.38 33.6758 13.5141 33.1258 14.558C30.5865 19.3777 27.9872 24.1659 25.4314 28.9771C24.1728 31.3462 22.9656 33.7427 21.7268 36.1224C21.3769 36.7946 21.0897 37.5271 20.1762 38C13.4802 25.4181 6.81645 12.8967 0 0.088429C2.73334 0.241079 5.13152 0.551614 7.62691 0.0508543Z" fill="url(#paint0_linear_1_1815)"/>
<defs>
<linearGradient id="paint0_linear_1_1815" x1="0.871821" y1="2.98571" x2="42.6187" y2="5.88114" gradientUnits="userSpaceOnUse">
<stop stop-color="#2E9546"/>
<stop offset="1" stop-color="#63AF49"/>
</linearGradient>
</defs>
</svg>
