<svg width="196" height="38" viewBox="0 0 196 38" fill="none" xmlns="http://www.w3.org/2000/svg">
<path d="M7.62691 0.0508543C10.7705 -0.301386 12.5502 1.20074 13.8737 3.79507C17.1948 10.3051 20.6597 16.7417 24.0659 23.2083C24.1874 23.4391 24.289 23.6841 24.5869 23.7382C26.3939 21.5922 26.3671 20.8367 25.0261 18.3619C21.9975 12.7726 19.0647 7.13144 16.1007 1.50729C15.9449 1.21179 15.7181 0.913045 15.8974 0.418633C24.008 0.418633 32.1562 0.418633 40.5793 0.418633C38.9732 3.8756 37.2336 6.99947 35.4408 10.1686C34.4272 9.58444 34.2556 8.6676 33.8146 7.96543C33.0803 6.7964 32.4254 5.57205 31.8132 4.33335C31.2271 3.14741 30.3573 2.84609 29.1374 3.23095C28.8837 4.03772 29.4604 4.56125 29.7614 5.14144C30.8363 7.21323 31.9663 9.25633 33.0614 11.3178C33.6256 12.38 33.6758 13.5141 33.1258 14.558C30.5865 19.3777 27.9872 24.1659 25.4314 28.9771C24.1728 31.3462 22.9656 33.7427 21.7268 36.1224C21.3769 36.7946 21.0897 37.5271 20.1762 38C13.4802 25.4181 6.81645 12.8967 0 0.088429C2.73334 0.241079 5.13152 0.551614 7.62691 0.0508543Z" fill="#3E3E3E"/>
<path d="M7.62691 0.0508543C10.7705 -0.301386 12.5502 1.20074 13.8737 3.79507C17.1948 10.3051 20.6597 16.7417 24.0659 23.2083C24.1874 23.4391 24.289 23.6841 24.5869 23.7382C26.3939 21.5922 26.3671 20.8367 25.0261 18.3619C21.9975 12.7726 19.0647 7.13144 16.1007 1.50729C15.9449 1.21179 15.7181 0.913045 15.8974 0.418633C24.008 0.418633 32.1562 0.418633 40.5793 0.418633C38.9732 3.8756 37.2336 6.99947 35.4408 10.1686C34.4272 9.58444 34.2556 8.6676 33.8146 7.96543C33.0803 6.7964 32.4254 5.57205 31.8132 4.33335C31.2271 3.14741 30.3573 2.84609 29.1374 3.23095C28.8837 4.03772 29.4604 4.56125 29.7614 5.14144C30.8363 7.21323 31.9663 9.25633 33.0614 11.3178C33.6256 12.38 33.6758 13.5141 33.1258 14.558C30.5865 19.3777 27.9872 24.1659 25.4314 28.9771C24.1728 31.3462 22.9656 33.7427 21.7268 36.1224C21.3769 36.7946 21.0897 37.5271 20.1762 38C13.4802 25.4181 6.81645 12.8967 0 0.088429C2.73334 0.241079 5.13152 0.551614 7.62691 0.0508543Z" fill="url(#paint0_linear_1_1814)"/>
<path d="M51.0568 28.5409C44.5757 24.3988 43.1133 16.8686 46.1489 11.2879C48.5168 6.93483 52.4241 4.70801 57.2643 3.92619C62.1602 3.13539 66.5517 4.29444 70.3846 7.33286C73.2828 9.63028 74.8585 12.7124 75.1007 16.4769C75.3415 20.2197 74.3041 23.5105 71.7495 26.2203C69.2797 28.8401 66.1815 30.5066 62.597 30.8831C58.5852 31.3044 54.6461 30.9007 51.0568 28.5409ZM64.5159 28.3532C69.9052 27.2436 71.521 22.5336 70.4838 18.0376C69.6137 14.2659 67.5193 11.2456 64.4522 8.94855C62.1203 7.20218 59.4357 6.11776 56.4986 6.2576C51.6565 6.48813 48.4072 10.6109 49.0796 15.466C50.0333 22.3514 56.8004 29.2766 64.5159 28.3532Z" fill="#3E3E3E"/>
<path d="M186.527 29.1581C187.911 28.8719 189.138 28.5034 190.291 27.8649C191.502 27.1947 192.479 26.3149 192.504 24.8943C192.528 23.5671 191.407 22.9211 190.4 22.3196C187.974 20.8702 185.249 20.1043 182.677 18.9889C180.852 18.1975 179.058 17.3601 177.412 16.211C173.479 13.4639 173.664 8.21185 177.853 5.85681C179.757 4.78661 181.832 4.26177 184.044 4.18928C187.366 4.08036 190.602 4.3892 193.68 5.73689C194.152 5.94353 194.648 6.11493 195.093 6.62313C194.454 7.88978 193.702 9.12427 192.689 10.441C191.462 9.01158 189.985 8.00119 188.306 7.3215C185.321 6.11372 182.321 5.83338 179.531 7.74882C177.543 9.1132 177.351 10.8356 179.438 12.1556C181.433 13.4167 183.621 14.2059 185.794 15.0488C188.292 16.0182 190.742 17.0343 193.004 18.5399C197.235 21.3556 196.786 27.0456 192.307 29.4408C188.867 31.2808 185.246 31.7348 181.399 31.2858C179.028 31.0093 176.699 30.657 174.448 29.8758C172.671 29.259 172.59 29.0525 173.523 27.4707C174.066 26.5496 174.71 25.6878 175.422 24.6312C178.522 27.7082 182.124 29.3236 186.527 29.1581Z" fill="#3E3E3E"/>
<path d="M167.437 30.7234C165.591 29.9198 164.956 28.2798 164.229 26.7172C163.482 25.1133 162.745 23.5045 162.017 21.8922C161.804 21.4212 161.441 21.3119 160.967 21.3131C158.063 21.3207 155.159 21.3258 152.255 21.3012C151.631 21.296 151.317 21.5971 151.067 22.108C150.134 24.0116 149.21 25.9207 148.225 27.7975C147.663 28.8681 148.208 29.7908 148.567 30.8552C146.533 30.8552 144.612 30.8552 142.7 30.8552C142.622 30.5178 142.828 30.4021 143.003 30.2993C144.657 29.3311 145.786 27.967 146.617 26.2108C149.226 20.6974 151.921 15.2238 154.667 9.77711C155.275 8.57137 155.438 7.56801 154.673 6.40604C154.282 5.81394 153.869 5.15533 154.057 4.21764C155.628 4.21764 157.224 4.21971 158.821 4.21656C159.407 4.2154 159.641 4.63001 159.842 5.07389C162.14 10.1481 164.382 15.2484 166.75 20.2901C168.215 23.4093 169.244 26.7498 171.328 29.5632C171.603 29.9352 171.929 30.2701 172.473 30.903C170.648 30.9092 169.101 31.1212 167.437 30.7234ZM154.876 13.9807C154.056 15.7569 153.236 17.533 152.343 19.468C155.244 19.468 157.893 19.468 160.838 19.468C159.426 16.4602 158.106 13.6474 156.64 10.5236C155.974 11.8326 155.471 12.8206 154.876 13.9807Z" fill="#3E3E3E"/>
<path d="M129.39 25.0693C126.59 18.1292 124.903 10.8445 121.09 4.43331C124.325 3.22545 126.948 4.24538 128.224 7.50465C130.427 13.1313 132.51 18.805 134.648 24.4568C135.074 25.5822 135.525 26.6981 136.103 28.1734C136.634 26.4751 137.067 25.1118 137.486 23.7438C138.924 19.0391 140.295 14.3125 141.821 9.63634C142.499 7.5583 142.815 5.746 140.433 4.43033C142.978 4.11135 145.434 4.22276 147.924 4.24477C147.857 4.83897 147.436 4.96041 147.104 5.06868C145.641 5.54571 145.047 6.7598 144.638 8.04841C142.34 15.2855 140.073 22.5324 137.832 29.7873C137.554 30.6883 137.103 31.0214 136.168 30.9634C134.915 30.8858 133.654 30.9198 132.397 30.9452C131.788 30.9575 131.467 30.7258 131.264 30.1395C130.684 28.4698 130.046 26.8202 129.39 25.0693Z" fill="#3E3E3E"/>
<path d="M97.9701 16.6782C97.9851 19.7413 98.0611 22.6908 97.9691 25.635C97.904 27.7172 98.3137 29.4948 100.505 30.8312C97.2 30.8312 94.2512 30.8312 90.9218 30.8312C93.5673 29.22 93.4341 26.8268 93.3961 24.445C93.3615 22.2784 93.2655 20.102 93.42 17.9459C93.6335 14.9675 90.9711 13.1073 88.2089 13.5248C84.5355 14.0801 84.1988 14.4807 84.1984 18.1878C84.1981 20.4416 84.2335 22.6961 84.1881 24.949C84.1442 27.1331 84.325 29.2067 86.602 30.8166C83.3467 30.8166 80.4643 30.8166 77.1689 30.8166C79.7992 29.1784 79.6395 26.8533 79.5996 24.543C79.5599 22.2465 79.5353 19.9471 79.6072 17.6522C79.6756 15.4663 79.6003 13.3847 77.4603 11.9509C79.4286 11.8518 81.3557 11.2782 83.1068 12.5262C83.608 12.8834 84.0679 12.9046 84.6658 12.6446C86.967 11.6441 89.3991 11.2728 91.8909 11.5088C94.7214 11.7769 97.0359 12.8926 97.9701 16.6782Z" fill="#3E3E3E"/>
<path d="M111.206 27.4383C114.665 29.6693 117.686 28.6508 120.516 26.3538C121.434 27.789 121.352 28.4456 119.958 29.2682C118.312 30.2393 116.527 30.853 114.577 30.951C111.539 31.1035 108.666 30.7834 106.063 28.9509C101.373 25.6489 100.479 19.2031 104.37 15.0399C106.242 13.0369 108.697 11.9469 111.492 11.7541C114.691 11.5333 117.529 12.2736 119.983 14.4959C120.818 15.2518 120.528 15.6047 119.948 16.0971C117.615 18.0799 115.267 20.0453 112.923 22.0155C111.641 23.0938 110.355 24.1688 109.03 25.2792C109.54 26.2402 110.297 26.8485 111.206 27.4383ZM107.059 22.3342C107.314 22.7611 107.346 23.3431 107.909 23.5786C110.02 21.8427 112.083 20.0706 114.228 18.4039C116.494 16.643 115.988 16.5548 114.128 15.1731C110.987 12.839 107.44 13.3815 106.413 17.5878C106.036 19.1326 106.41 20.6812 107.059 22.3342Z" fill="#3E3E3E"/>
<defs>
<linearGradient id="paint0_linear_1_1814" x1="0.871821" y1="2.98571" x2="42.6187" y2="5.88114" gradientUnits="userSpaceOnUse">
<stop stop-color="#2E9546"/>
<stop offset="1" stop-color="#63AF49"/>
</linearGradient>
</defs>
</svg>
