<svg width="210" height="38" viewBox="0 0 210 38" fill="none" xmlns="http://www.w3.org/2000/svg">
<path d="M52.5544 16.6969L50.4201 17.301C50.2859 16.9453 50.0879 16.5996 49.8262 16.264C49.5711 15.9218 49.2221 15.6399 48.7792 15.4184C48.3362 15.1969 47.7691 15.0862 47.0778 15.0862C46.1315 15.0862 45.3429 15.3043 44.712 15.7406C44.0879 16.1701 43.7758 16.7171 43.7758 17.3815C43.7758 17.9721 43.9905 18.4386 44.4201 18.7808C44.8496 19.1231 45.5208 19.4084 46.4335 19.6366L48.7288 20.2003C50.1114 20.5359 51.1416 21.0493 51.8195 21.7406C52.4973 22.4252 52.8362 23.3077 52.8362 24.3883C52.8362 25.2742 52.5812 26.0661 52.0711 26.7641C51.5678 27.4621 50.8631 28.0125 49.957 28.4151C49.051 28.8178 47.9973 29.0192 46.7959 29.0192C45.2187 29.0192 43.9134 28.6769 42.8798 27.9923C41.8462 27.3078 41.1919 26.3077 40.9167 24.9923L43.1718 24.4285C43.3865 25.2608 43.7926 25.8849 44.3899 26.301C44.9939 26.7171 45.7825 26.9252 46.7557 26.9252C47.8631 26.9252 48.7423 26.6903 49.3933 26.2205C50.051 25.744 50.3799 25.1735 50.3799 24.5091C50.3799 23.9722 50.1919 23.5225 49.8161 23.1601C49.4403 22.7909 48.8631 22.5158 48.0845 22.3346L45.5073 21.7305C44.0912 21.395 43.0509 20.8748 42.3865 20.1701C41.7288 19.4587 41.3999 18.5694 41.3999 17.5023C41.3999 16.6298 41.6449 15.858 42.1348 15.1869C42.6315 14.5157 43.306 13.9889 44.1583 13.6063C45.0174 13.2238 45.9906 13.0325 47.0778 13.0325C48.608 13.0325 49.8094 13.3681 50.6819 14.0392C51.5611 14.7103 52.1852 15.5963 52.5544 16.6969ZM56.4126 28.697V13.2338H58.7079V15.65H58.9093C59.2314 14.8244 59.7516 14.1835 60.4697 13.7271C61.1878 13.264 62.0502 13.0325 63.057 13.0325C64.0771 13.0325 64.9261 13.264 65.604 13.7271C66.2885 14.1835 66.8221 14.8244 67.2046 15.65H67.3657C67.7617 14.8513 68.3556 14.2171 69.1476 13.7473C69.9396 13.2707 70.8892 13.0325 71.9966 13.0325C73.3792 13.0325 74.5101 13.4654 75.3893 14.3311C76.2685 15.1902 76.7081 16.5292 76.7081 18.348V28.697H74.3322V18.348C74.3322 17.207 74.0201 16.3916 73.396 15.9016C72.7718 15.4117 72.0369 15.1667 71.1912 15.1667C70.104 15.1667 69.2617 15.4956 68.6644 16.1533C68.0671 16.8043 67.7684 17.6298 67.7684 18.6298V28.697H65.3523V18.1063C65.3523 17.2271 65.067 16.5191 64.4966 15.9822C63.9261 15.4385 63.1912 15.1667 62.2918 15.1667C61.6744 15.1667 61.0972 15.3312 60.5603 15.66C60.0301 15.9889 59.6006 16.4453 59.2717 17.0292C58.9495 17.6063 58.7885 18.2741 58.7885 19.0325V28.697H56.4126ZM92.0051 16.6969L89.8709 17.301C89.7367 16.9453 89.5387 16.5996 89.2769 16.264C89.0219 15.9218 88.6729 15.6399 88.2299 15.4184C87.787 15.1969 87.2199 15.0862 86.5286 15.0862C85.5823 15.0862 84.7937 15.3043 84.1628 15.7406C83.5386 16.1701 83.2266 16.7171 83.2266 17.3815C83.2266 17.9721 83.4413 18.4386 83.8709 18.7808C84.3004 19.1231 84.9715 19.4084 85.8843 19.6366L88.1796 20.2003C89.5622 20.5359 90.5924 21.0493 91.2702 21.7406C91.9481 22.4252 92.287 23.3077 92.287 24.3883C92.287 25.2742 92.032 26.0661 91.5219 26.7641C91.0186 27.4621 90.3139 28.0125 89.4078 28.4151C88.5018 28.8178 87.4481 29.0192 86.2467 29.0192C84.6695 29.0192 83.3641 28.6769 82.3306 27.9923C81.297 27.3078 80.6426 26.3077 80.3675 24.9923L82.6225 24.4285C82.8373 25.2608 83.2433 25.8849 83.8407 26.301C84.4447 26.7171 85.2333 26.9252 86.2064 26.9252C87.3138 26.9252 88.193 26.6903 88.844 26.2205C89.5018 25.744 89.8306 25.1735 89.8306 24.5091C89.8306 23.9722 89.6427 23.5225 89.2669 23.1601C88.891 22.7909 88.3138 22.5158 87.5353 22.3346L84.9581 21.7305C83.542 21.395 82.5017 20.8748 81.8373 20.1701C81.1796 19.4587 80.8507 18.5694 80.8507 17.5023C80.8507 16.6298 81.0957 15.858 81.5856 15.1869C82.0823 14.5157 82.7568 13.9889 83.6091 13.6063C84.4682 13.2238 85.4413 13.0325 86.5286 13.0325C88.0588 13.0325 89.2602 13.3681 90.1326 14.0392C91.0118 14.7103 91.636 15.5963 92.0051 16.6969ZM110.32 29.0192C108.83 29.0192 107.545 28.6903 106.464 28.0326C105.39 27.3682 104.561 26.442 103.978 25.254C103.4 24.0594 103.112 22.6701 103.112 21.0862C103.112 19.5023 103.4 18.1063 103.978 16.8983C104.561 15.6835 105.374 14.7372 106.414 14.0593C107.461 13.3748 108.682 13.0325 110.078 13.0325C110.884 13.0325 111.679 13.1667 112.464 13.4352C113.249 13.7036 113.964 14.1399 114.608 14.7439C115.253 15.3412 115.766 16.1332 116.149 17.1198C116.531 18.1063 116.723 19.3211 116.723 20.7641V21.7708H104.803V19.7171H114.306C114.306 18.8446 114.132 18.0661 113.783 17.3815C113.441 16.6969 112.951 16.1567 112.313 15.7607C111.682 15.3647 110.937 15.1667 110.078 15.1667C109.132 15.1667 108.313 15.4016 107.622 15.8714C106.937 16.3345 106.41 16.9386 106.041 17.6835C105.672 18.4285 105.488 19.2272 105.488 20.0795V21.4486C105.488 22.6164 105.689 23.6064 106.092 24.4185C106.501 25.2238 107.068 25.8379 107.793 26.2608C108.518 26.6769 109.36 26.8849 110.32 26.8849C110.944 26.8849 111.508 26.7977 112.011 26.6232C112.521 26.442 112.961 26.1735 113.33 25.8178C113.699 25.4554 113.984 25.0057 114.186 24.4688L116.481 25.1131C116.239 25.8916 115.833 26.5762 115.263 27.1668C114.692 27.7507 113.988 28.2071 113.149 28.5359C112.31 28.8581 111.367 29.0192 110.32 29.0192ZM127.062 13.2338V15.2473H119.048V13.2338H127.062ZM121.384 9.5291H123.76V24.2675C123.76 24.9386 123.857 25.442 124.052 25.7775C124.253 26.1064 124.508 26.3279 124.817 26.442C125.132 26.5494 125.464 26.603 125.813 26.603C126.075 26.603 126.29 26.5896 126.458 26.5628C126.625 26.5292 126.76 26.5024 126.86 26.4822L127.343 28.6165C127.182 28.6769 126.958 28.7373 126.669 28.7977C126.38 28.8648 126.015 28.8984 125.572 28.8984C124.901 28.8984 124.243 28.7541 123.598 28.4655C122.961 28.1769 122.431 27.7373 122.008 27.1467C121.592 26.5561 121.384 25.8111 121.384 24.9118V9.5291ZM133.344 19.3949V28.697H130.968V8.07943H133.344V15.65H133.545C133.907 14.8513 134.451 14.2171 135.176 13.7473C135.907 13.2707 136.88 13.0325 138.095 13.0325C139.149 13.0325 140.072 13.2439 140.864 13.6667C141.656 14.0828 142.27 14.7238 142.706 15.5895C143.149 16.4486 143.37 17.5426 143.37 18.8715V28.697H140.995V19.0325C140.995 17.8043 140.676 16.8547 140.038 16.1835C139.407 15.5057 138.531 15.1667 137.411 15.1667C136.632 15.1667 135.934 15.3312 135.317 15.66C134.706 15.9889 134.223 16.4687 133.867 17.0996C133.518 17.7305 133.344 18.4956 133.344 19.3949ZM147.717 28.697V13.2338H150.093V28.697H147.717ZM148.925 10.6566C148.462 10.6566 148.063 10.4989 147.727 10.1835C147.398 9.86803 147.234 9.48883 147.234 9.04588C147.234 8.60292 147.398 8.22373 147.727 7.90829C148.063 7.59285 148.462 7.43513 148.925 7.43513C149.388 7.43513 149.784 7.59285 150.113 7.90829C150.449 8.22373 150.616 8.60292 150.616 9.04588C150.616 9.48883 150.449 9.86803 150.113 10.1835C149.784 10.4989 149.388 10.6566 148.925 10.6566ZM160.726 29.0192C159.33 29.0192 158.105 28.687 157.052 28.0225C156.005 27.3581 155.186 26.4285 154.595 25.2339C154.011 24.0393 153.719 22.6433 153.719 21.046C153.719 19.4352 154.011 18.0292 154.595 16.8278C155.186 15.6265 156.005 14.6936 157.052 14.0291C158.105 13.3647 159.33 13.0325 160.726 13.0325C162.122 13.0325 163.344 13.3647 164.391 14.0291C165.444 14.6936 166.263 15.6265 166.847 16.8278C167.438 18.0292 167.733 19.4352 167.733 21.046C167.733 22.6433 167.438 24.0393 166.847 25.2339C166.263 26.4285 165.444 27.3581 164.391 28.0225C163.344 28.687 162.122 29.0192 160.726 29.0192ZM160.726 26.8849C161.787 26.8849 162.659 26.6131 163.344 26.0695C164.028 25.5259 164.535 24.8111 164.864 23.9252C165.193 23.0393 165.357 22.0795 165.357 21.046C165.357 20.0124 165.193 19.0493 164.864 18.1567C164.535 17.2641 164.028 16.5426 163.344 15.9922C162.659 15.4419 161.787 15.1667 160.726 15.1667C159.666 15.1667 158.793 15.4419 158.109 15.9922C157.424 16.5426 156.918 17.2641 156.589 18.1567C156.26 19.0493 156.095 20.0124 156.095 21.046C156.095 22.0795 156.26 23.0393 156.589 23.9252C156.918 24.8111 157.424 25.5259 158.109 26.0695C158.793 26.6131 159.666 26.8849 160.726 26.8849ZM171.36 34.4957V13.2338H173.655V15.6902H173.937C174.111 15.4218 174.353 15.0795 174.662 14.6634C174.977 14.2405 175.427 13.8647 176.011 13.5358C176.601 13.2003 177.4 13.0325 178.407 13.0325C179.709 13.0325 180.856 13.358 181.85 14.009C182.843 14.66 183.618 15.5828 184.175 16.7775C184.732 17.9721 185.011 19.3815 185.011 21.0057C185.011 22.6433 184.732 24.0628 184.175 25.2641C183.618 26.4588 182.846 27.3849 181.86 28.0427C180.873 28.6937 179.736 29.0192 178.447 29.0192C177.454 29.0192 176.658 28.8547 176.061 28.5259C175.464 28.1903 175.004 27.8111 174.682 27.3883C174.36 26.9588 174.111 26.603 173.937 26.3212H173.736V34.4957H171.36ZM173.695 20.9654C173.695 22.1332 173.866 23.1634 174.209 24.056C174.551 24.942 175.051 25.6366 175.709 26.14C176.366 26.6366 177.172 26.8849 178.125 26.8849C179.118 26.8849 179.947 26.6232 180.611 26.0997C181.283 25.5695 181.786 24.8581 182.122 23.9654C182.464 23.0661 182.635 22.0661 182.635 20.9654C182.635 19.8782 182.467 18.8983 182.132 18.0258C181.803 17.1466 181.303 16.452 180.632 15.9419C179.967 15.4251 179.132 15.1667 178.125 15.1667C177.158 15.1667 176.346 15.4117 175.689 15.9016C175.031 16.3849 174.534 17.0627 174.199 17.9352C173.863 18.801 173.695 19.8111 173.695 20.9654ZM188.635 28.697V13.2338H191.011V28.697H188.635ZM189.843 10.6566C189.38 10.6566 188.981 10.4989 188.645 10.1835C188.316 9.86803 188.152 9.48883 188.152 9.04588C188.152 8.60292 188.316 8.22373 188.645 7.90829C188.981 7.59285 189.38 7.43513 189.843 7.43513C190.306 7.43513 190.702 7.59285 191.031 7.90829C191.367 8.22373 191.534 8.60292 191.534 9.04588C191.534 9.48883 191.367 9.86803 191.031 10.1835C190.702 10.4989 190.306 10.6566 189.843 10.6566ZM199.913 29.0594C198.933 29.0594 198.044 28.8749 197.245 28.5057C196.446 28.1299 195.812 27.5896 195.342 26.8849C194.872 26.1735 194.638 25.3144 194.638 24.3077C194.638 23.4218 194.812 22.7037 195.161 22.1534C195.51 21.5963 195.977 21.1601 196.56 20.8446C197.144 20.5292 197.789 20.2943 198.493 20.1399C199.205 19.9788 199.919 19.8513 200.638 19.7574C201.577 19.6366 202.339 19.546 202.923 19.4855C203.513 19.4184 203.943 19.3077 204.211 19.1533C204.487 18.999 204.624 18.7305 204.624 18.348V18.2674C204.624 17.2741 204.352 16.5023 203.809 15.952C203.272 15.4016 202.456 15.1265 201.362 15.1265C200.228 15.1265 199.339 15.3748 198.695 15.8714C198.05 16.3681 197.597 16.8983 197.336 17.462L195.081 16.6567C195.483 15.7171 196.02 14.9855 196.691 14.462C197.369 13.9318 198.107 13.5627 198.906 13.3546C199.711 13.1399 200.503 13.0325 201.282 13.0325C201.779 13.0325 202.349 13.0929 202.993 13.2137C203.644 13.3278 204.272 13.566 204.876 13.9285C205.487 14.2909 205.993 14.8379 206.396 15.5694C206.799 16.301 207 17.2808 207 18.509V28.697H204.624V26.603H204.503C204.342 26.9386 204.074 27.2977 203.698 27.6802C203.322 28.0628 202.822 28.3883 202.198 28.6568C201.574 28.9252 200.812 29.0594 199.913 29.0594ZM200.275 26.9252C201.215 26.9252 202.007 26.7406 202.651 26.3715C203.302 26.0024 203.792 25.5259 204.121 24.942C204.456 24.3581 204.624 23.744 204.624 23.0997V20.9252C204.524 21.046 204.302 21.1567 203.96 21.2574C203.624 21.3513 203.235 21.4352 202.792 21.5091C202.356 21.5762 201.93 21.6366 201.513 21.6903C201.104 21.7372 200.772 21.7775 200.517 21.8111C199.899 21.8916 199.322 22.0225 198.785 22.2037C198.255 22.3782 197.826 22.6433 197.497 22.999C197.175 23.348 197.013 23.8245 197.013 24.4285C197.013 25.254 197.319 25.8782 197.93 26.301C198.547 26.7171 199.329 26.9252 200.275 26.9252Z" fill="#5D308D"/>
<path d="M32.4726 11.979L25.7954 0H6.26465L27.3215 36.3051L31.1697 30.0562L17.737 6.5746H22.0196L28.8475 18.6743L32.4726 11.979Z" fill="url(#paint0_linear_1_1830)"/>
<path d="M0 26.0208L6.68317 37.9999H26.214L5.15714 1.69482L1.30889 7.93767L14.7416 31.4253H10.459L3.63111 19.3256L0 26.0208Z" fill="url(#paint1_linear_1_1830)"/>
<defs>
<linearGradient id="paint0_linear_1_1830" x1="6.26417" y1="18.1515" x2="32.4753" y2="18.1515" gradientUnits="userSpaceOnUse">
<stop stop-color="#61318D"/>
<stop offset="1" stop-color="#7D4294"/>
</linearGradient>
<linearGradient id="paint1_linear_1_1830" x1="0.000663492" y1="19.8479" x2="26.2118" y2="19.8479" gradientUnits="userSpaceOnUse">
<stop stop-color="#61318D"/>
<stop offset="1" stop-color="#7D4294"/>
</linearGradient>
</defs>
</svg>
