<svg width="255" height="255" viewBox="0 0 255 255" fill="none" xmlns="http://www.w3.org/2000/svg">
<path d="M127.5 39.8438C158.61 39.8438 183.282 64.0156 183.282 93.1813C183.282 111.35 178.607 120.604 172.678 129.019C171.332 130.904 169.855 132.887 168.247 134.969C162.68 142.247 155.986 151.013 151.237 163.646C150.268 166.251 149.009 168.738 147.486 171.062L146.891 171.913C145.59 173.774 144.094 175.49 142.429 177.034C138.115 180.986 132.93 183.281 127.5 183.281C122.082 183.281 116.886 180.986 112.562 177.034C110.895 175.487 109.399 173.767 108.099 171.902L107.515 171.052C105.992 168.731 104.734 166.247 103.764 163.646C99.0149 151.003 92.3211 142.247 86.7536 134.959C85.2384 133.004 83.7613 131.021 82.323 129.009C76.4049 120.615 71.7192 111.35 71.7192 93.1706C71.7192 64.0156 96.4011 39.8438 127.5 39.8438ZM161.15 179.233C163.19 176.046 164.869 172.678 166.154 169.246C170 159.014 174.845 152.649 180.158 145.69C181.964 143.321 183.824 140.877 185.715 138.189C193.259 127.479 199.219 115.079 199.219 93.1706C199.219 54.6231 166.813 23.9062 127.5 23.9062C88.188 23.9062 55.7817 54.6231 55.7817 93.1813C55.7817 115.069 61.7424 127.479 69.2861 138.189C71.1774 140.877 73.0367 143.321 74.843 145.69C80.1555 152.649 85.0005 159.014 88.8467 169.246C90.1324 172.678 91.8217 176.046 93.8511 179.233L96.2099 202.778C96.9935 210.532 100.628 217.719 106.41 222.946C112.191 228.172 119.707 231.066 127.5 231.066C135.294 231.066 142.81 228.172 148.591 222.946C154.373 217.719 158.007 210.532 158.791 202.778L161.15 179.233ZM143.512 195.489L142.939 201.184C142.562 205.017 140.773 208.573 137.919 211.16C135.066 213.747 131.352 215.18 127.5 215.18C123.649 215.18 119.935 213.747 117.082 211.16C114.228 208.573 112.439 205.017 112.062 201.184L111.499 195.489C116.28 197.848 121.646 199.219 127.5 199.219C133.344 199.219 138.72 197.838 143.502 195.489M25.7449 32.0769C27.0993 30.4559 29.042 29.4389 31.1459 29.2497C33.2498 29.0604 35.3428 29.7142 36.9649 31.0675L52.9024 44.3487C54.4681 45.7185 55.4361 47.6463 55.5996 49.7201C55.763 51.794 55.109 53.8496 53.7772 55.4478C52.4454 57.0459 50.5415 58.0599 48.4721 58.2731C46.4027 58.4863 44.332 57.8818 42.7024 56.5888L26.7649 43.3075C25.1423 41.9545 24.1233 40.0126 23.9321 37.9087C23.7408 35.8047 24.3928 33.7002 25.7449 32.0769ZM229.235 32.0875C229.906 32.8916 230.412 33.8201 230.724 34.8199C231.036 35.8197 231.148 36.8712 231.053 37.9143C230.958 38.9573 230.659 39.9715 230.172 40.8987C229.685 41.8259 229.02 42.6481 228.215 43.3181L212.277 56.5994C211.478 57.299 210.546 57.8316 209.537 58.1659C208.529 58.5002 207.464 58.6294 206.404 58.5459C205.345 58.4624 204.313 58.1679 203.369 57.6797C202.426 57.1916 201.589 56.5196 200.909 55.7033C200.228 54.887 199.718 53.9429 199.408 52.9266C199.098 51.9102 198.995 50.8421 199.104 49.7852C199.213 48.7282 199.532 47.7037 200.042 46.7719C200.553 45.8401 201.245 45.0198 202.077 44.3594L218.015 31.0781C219.638 29.7261 221.732 29.0741 223.836 29.2653C225.94 29.4566 227.882 30.4649 229.235 32.0875ZM13.2817 87.6562C13.2817 85.5428 14.1213 83.5159 15.6157 82.0215C17.1102 80.5271 19.137 79.6875 21.2505 79.6875H42.5005C44.6139 79.6875 46.6408 80.5271 48.1352 82.0215C49.6297 83.5159 50.4692 85.5428 50.4692 87.6562C50.4692 89.7697 49.6297 91.7966 48.1352 93.291C46.6408 94.7854 44.6139 95.625 42.5005 95.625H21.2505C19.137 95.625 17.1102 94.7854 15.6157 93.291C14.1213 91.7966 13.2817 89.7697 13.2817 87.6562ZM204.532 87.6562C204.532 85.5428 205.371 83.5159 206.866 82.0215C208.36 80.5271 210.387 79.6875 212.5 79.6875H233.75C235.864 79.6875 237.891 80.5271 239.385 82.0215C240.88 83.5159 241.719 85.5428 241.719 87.6562C241.719 89.7697 240.88 91.7966 239.385 93.291C237.891 94.7854 235.864 95.625 233.75 95.625H212.5C210.387 95.625 208.36 94.7854 206.866 93.291C205.371 91.7966 204.532 89.7697 204.532 87.6562ZM54.9317 126.597C55.8764 128.486 56.0322 130.674 55.3647 132.678C54.6973 134.682 53.2613 136.34 51.3724 137.286L35.4349 145.254C34.4976 145.731 33.4752 146.018 32.4266 146.098C31.3779 146.178 30.3238 146.05 29.325 145.721C28.3262 145.391 27.4025 144.868 26.607 144.18C25.8116 143.492 25.1602 142.653 24.6905 141.712C24.2207 140.771 23.9418 139.747 23.8699 138.697C23.7981 137.648 23.9346 136.595 24.2716 135.599C24.6087 134.603 25.1396 133.683 25.8337 132.893C26.5279 132.103 27.3716 131.458 28.3161 130.996L44.2536 123.027C46.1445 122.083 48.3328 121.929 50.3373 122.598C52.3418 123.268 53.9877 124.706 54.9317 126.597ZM200.08 126.597C201.024 124.709 202.679 123.273 204.681 122.603C206.682 121.934 208.868 122.086 210.758 123.027L226.695 130.996C227.64 131.458 228.484 132.103 229.178 132.893C229.872 133.683 230.403 134.603 230.74 135.599C231.077 136.595 231.214 137.648 231.142 138.697C231.07 139.747 230.791 140.771 230.321 141.712C229.851 142.653 229.2 143.492 228.405 144.18C227.609 144.868 226.685 145.391 225.687 145.721C224.688 146.05 223.634 146.178 222.585 146.098C221.536 146.018 220.514 145.731 219.577 145.254L203.639 137.286C201.748 136.342 200.31 134.685 199.641 132.681C198.971 130.676 199.136 128.488 200.08 126.597Z" fill="#49E613"/>
</svg>
