<svg width="198" height="48" viewBox="0 0 198 48" fill="none" xmlns="http://www.w3.org/2000/svg">
<path fill-rule="evenodd" clip-rule="evenodd" d="M70.5099 39.0026C70.6335 39.1272 70.8625 39.2034 71.1141 39.2034C71.3389 39.2034 71.5477 39.138 71.6643 39.0364C71.7104 38.9922 71.7499 38.9457 71.773 38.8902C71.6954 38.8855 71.6253 38.8667 71.5745 38.8243L71.4852 38.7566L71.5167 38.6668C71.6018 38.3753 71.5707 38.1331 71.4311 37.9939C71.3149 37.8801 71.1141 37.8312 70.8583 37.8542C70.6763 37.873 70.5211 37.9629 70.3547 38.0578C70.2155 38.1368 70.0758 38.2205 69.9164 38.2577L69.6338 38.3296V36.4218C69.6338 36.2182 69.646 36.0066 69.6531 35.8021C69.6728 35.4165 69.6883 35.0501 69.638 34.7736C69.5952 34.5437 69.386 34.4261 69.0182 34.4261C68.7587 34.4261 68.4568 34.491 68.2588 34.5851L68.2273 34.6683H67.434L67.9141 34.3659C68.0072 34.2451 68.1934 34.1581 68.3867 34.0683C68.5569 33.9878 68.7657 33.8905 68.801 33.8073C68.8245 33.7546 68.8438 33.6859 68.809 33.6474C68.7859 33.622 68.6811 33.543 68.255 33.543C68.2122 33.543 68.1699 33.543 68.1238 33.5463L67.9371 33.5496L67.9028 33.4104C67.8525 33.2068 67.8525 32.9876 67.8525 32.776C67.8595 32.2879 67.8294 32.0504 67.5346 31.9902C67.457 31.9742 67.3841 31.9672 67.3023 31.9672C67.0545 31.9672 66.8067 32.0382 66.5466 32.1181C66.4262 32.1553 66.303 32.1938 66.1784 32.2197V32.2616C66.3336 32.2771 66.4342 32.3326 66.4921 32.3787C66.6976 32.5489 66.6783 32.839 66.6595 33.1235C66.6557 33.2486 66.643 33.3845 66.6595 33.4828C66.69 33.6789 66.7831 33.7461 67.0465 33.7461C67.1669 33.7461 67.322 33.7316 67.5196 33.6939L68.0227 33.6102L67.7476 33.9507C67.6042 34.1247 67.434 34.3354 67.2633 34.5399L67.1161 34.7134L66.9303 34.5634C66.8372 34.4868 66.7291 34.4571 66.5819 34.4571C66.3416 34.4571 66.0543 34.547 65.7759 34.6452C65.6362 34.6909 65.5088 34.7365 65.3809 34.7666V34.8192C65.5201 34.8348 65.6362 34.8724 65.7213 34.9443C65.9113 35.1037 65.892 35.352 65.8732 35.6215C65.8685 35.7033 65.861 35.787 65.861 35.8698V36.656C65.861 36.83 65.853 37.0035 65.8492 37.17C65.8262 37.7672 65.8069 38.3329 66.1013 38.5714C66.225 38.6701 66.4036 38.7195 66.6519 38.7195H66.6703C67.1241 38.711 67.3874 38.5224 67.6395 38.2577C67.6197 38.2502 67.5971 38.2474 67.5812 38.2427C67.5271 38.2812 67.4453 38.3264 67.3183 38.3264C67.2868 38.3264 67.2482 38.3226 67.2129 38.3146L67.0465 38.2812L67.0545 38.1458C67.077 37.8575 67.0625 37.5138 67.0502 37.1479C67.031 36.7426 67.0197 36.324 67.0545 35.984C67.0695 35.787 67.1081 35.6558 67.1669 35.5641C67.3023 35.3558 67.6437 35.1827 67.9296 35.1827C68.2009 35.1827 68.3947 35.3271 68.4412 35.5641C68.4916 35.8176 68.476 36.1124 68.4568 36.4218C68.4525 36.5775 68.4412 36.7313 68.4412 36.8865C68.4412 37.0421 68.437 37.1926 68.4295 37.344C68.4182 37.6389 68.4022 37.9403 68.4412 38.1862C68.476 38.4204 68.6345 38.5154 68.8362 38.6362C68.8823 38.6626 68.9326 38.6889 68.9834 38.7223C69.022 38.727 69.0643 38.727 69.1076 38.727C69.5755 38.727 69.8858 38.553 70.1139 38.4246L70.6067 38.1519L70.4478 38.6052C70.389 38.7642 70.413 38.9001 70.5099 39.0026Z" fill="#8F8F8F"/>
<path fill-rule="evenodd" clip-rule="evenodd" d="M75.545 35.7037C75.932 35.7187 76.2729 35.6143 76.5137 35.5001V35.4888C76.4432 35.4845 76.3816 35.4784 76.3195 35.4549L76.2645 35.4389L76.2306 35.4022C76.1262 35.288 76.0604 35.1676 76.0016 35.0623C75.94 34.9405 75.8822 34.8309 75.7618 34.7519C75.6414 34.6729 75.4792 34.6343 75.2812 34.6343C74.9261 34.6343 74.5109 34.7632 74.2598 34.8878L73.9998 35.0237L73.9335 34.7862C73.8714 34.5699 73.9029 34.2981 73.9297 34.0112C73.9654 33.6863 74.0068 33.2485 73.8408 33.1573C73.7943 33.1385 73.7247 33.1338 73.6151 33.1272C73.5234 33.1272 73.4143 33.1197 73.2906 33.0966L73.1312 33.067L73.1274 32.9386C73.1242 32.8436 73.1274 32.7496 73.1274 32.6621C73.1354 32.4322 73.1397 32.1975 73.0193 32.1185C72.9422 32.0687 72.8566 32.0465 72.7404 32.0465C72.4964 32.0465 72.1827 32.1556 71.9076 32.2544C71.7496 32.3113 71.5982 32.3635 71.4548 32.4021V32.4815C71.5982 32.4844 71.7412 32.4999 71.846 32.5789L71.8888 32.6137L71.9039 32.6583C71.9542 32.8051 71.9424 32.9607 71.9349 33.0966C71.9278 33.225 71.9189 33.3689 71.9772 33.414C72.0054 33.4333 72.0826 33.4333 72.1757 33.4333H72.2138C72.3294 33.4333 72.4503 33.4361 72.5777 33.4676L72.7329 33.5048V35.1177L72.3835 34.8991C72.1592 34.7599 71.7256 34.6085 71.3574 34.6085C71.1674 34.6085 71.0127 34.6456 70.9121 34.7284C70.8148 34.797 70.7691 34.8991 70.7151 35.0082C70.6488 35.1516 70.5716 35.3185 70.3699 35.4464L70.3083 35.4921L70.219 35.4888C70.2001 35.4845 70.1832 35.4845 70.1677 35.4888C70.1677 35.4921 70.1677 35.5001 70.1606 35.5071C70.456 35.6317 70.7607 35.7037 71.009 35.7037C71.1759 35.7037 71.3226 35.6745 71.4393 35.6143C71.4816 35.5828 71.5704 35.4845 71.6405 35.4131C71.8028 35.2245 71.9772 35.0279 72.2213 35.0279C72.4997 35.0279 72.6859 35.2663 72.7249 35.3867C72.7719 35.5156 72.7555 35.6816 72.7489 35.8626C72.7404 35.9501 72.7329 36.0371 72.7329 36.1198V36.8191C72.7329 36.9663 72.7329 37.113 72.7249 37.2527C72.7099 37.816 72.6896 38.3413 72.9765 38.5717C73.0973 38.6672 73.2751 38.7156 73.5262 38.7198H73.5304C74.0195 38.7198 74.2556 38.5534 74.5151 38.2618C74.43 38.2581 74.3482 38.2661 74.1973 38.2966L73.9264 38.3526V36.1198V35.9233C73.9142 35.5377 73.9029 35.1445 74.43 35.0312L74.5222 35.0129L74.6073 35.0576C74.7775 35.1516 74.8904 35.2809 74.9868 35.391C75.1617 35.5828 75.2704 35.6919 75.545 35.7037Z" fill="#8F8F8F"/>
<path fill-rule="evenodd" clip-rule="evenodd" d="M79.3027 35.0688V35.1864L79.1635 35.2268C78.9772 35.2804 78.8065 35.3942 78.6518 35.5001C78.5752 35.5461 78.5014 35.5983 78.435 35.636L78.025 35.8593L78.0946 35.4723C78.1256 35.303 78.1016 35.0345 78.0748 34.7514C78.025 34.1693 77.9704 33.565 78.3114 33.2777C78.435 33.1733 78.6057 33.1192 78.7953 33.1192C78.8964 33.1192 79.0083 33.1338 79.1244 33.1653L79.2641 33.2024L79.2759 33.312C79.3107 33.6604 79.3027 34.0371 79.3027 34.4039C79.2947 34.6226 79.2947 34.8502 79.3027 35.0688ZM81.1315 34.4726C81.1545 34.8041 81.5725 34.948 81.9793 34.948C82.2318 34.948 82.4792 34.8911 82.6649 34.7933V34.7735C82.4519 34.7444 82.4054 34.6306 82.3941 34.5854C82.3593 34.434 82.3786 34.2901 82.3941 34.1622C82.4166 34.0263 82.4326 33.8974 82.3823 33.8142C82.3287 33.7126 82.2158 33.5918 81.8594 33.5918C81.5152 33.5918 81.0882 33.7009 80.7755 33.7841L80.4298 33.8791L80.4961 33.5951C80.5662 33.3162 80.5192 33.0966 80.3645 32.949C80.2018 32.798 79.9145 32.719 79.5505 32.719C79.1244 32.719 78.6518 32.8323 78.373 33.0096L78.1562 33.1455L78.0438 32.9452C77.962 32.8051 77.8308 32.7425 77.614 32.7425C77.2735 32.7425 76.8273 32.9038 76.5028 33.0214C76.4671 33.0364 76.4332 33.0477 76.3975 33.0585V33.1418C76.5296 33.1418 76.6603 33.1653 76.7619 33.2363L76.8155 33.2777L76.831 33.3346C76.9011 33.7084 76.8851 34.1321 76.8785 34.5436C76.8701 34.8991 76.8588 35.2353 76.9011 35.5349C76.9208 35.6971 77.052 35.8405 77.1964 35.9872C77.3389 36.1419 77.4903 36.3004 77.5129 36.4975C77.5594 36.7923 77.5369 37.1097 77.5204 37.4116C77.5054 37.6839 77.4861 37.9402 77.5129 38.1523C77.5557 38.4504 77.8538 38.6921 78.2107 38.7198H78.3307C78.7995 38.7198 79.0624 38.5228 79.3107 38.2576C79.2171 38.2472 79.1362 38.2538 79.0313 38.2891L78.7449 38.3832L78.7327 38.1457C78.7219 37.9336 78.7294 37.7069 78.7327 37.4873C78.7487 36.9367 78.7638 36.3724 78.4816 36.1048L78.3542 35.9759L78.5122 35.8697C78.5314 35.8556 78.5512 35.8405 78.5789 35.825C78.7369 35.7112 78.9848 35.5349 79.3375 35.564C79.4889 35.5748 79.605 35.628 79.7141 35.6665C79.8021 35.7037 79.8801 35.7333 79.953 35.7418C80.4077 35.7789 80.7755 35.6397 81.0962 35.3002C81.0736 35.2922 81.0501 35.2842 81.0304 35.2729C80.98 35.3063 80.8992 35.3486 80.7755 35.3486C80.7482 35.3486 80.7209 35.3486 80.6894 35.3406L80.5272 35.3181L80.5079 35.1036C80.4882 34.7933 80.4496 34.37 80.5465 34.1015L80.5733 34.0225L80.6664 33.9877C80.8216 33.936 80.9692 33.9581 81.0543 34.0338C81.17 34.1321 81.1507 34.2821 81.1315 34.4001V34.4726Z" fill="#8F8F8F"/>
<path fill-rule="evenodd" clip-rule="evenodd" d="M109.528 35.47C109.44 35.7117 109.037 35.8255 108.89 35.8471L108.642 35.8927L108.627 35.6919C108.592 35.0388 108.592 34.2605 108.627 33.6106L108.634 33.5203L108.735 33.4747C108.858 33.4178 108.967 33.392 109.068 33.392C109.176 33.392 109.278 33.4258 109.354 33.4898C109.549 33.6407 109.545 33.9473 109.541 34.268V34.4039C109.541 34.5017 109.549 34.6226 109.556 34.7444C109.575 35.0312 109.59 35.3035 109.528 35.47ZM105.008 35.4785C104.927 35.7037 104.574 35.8556 104.358 35.8702L104.137 35.8815L104.125 35.7117C104.086 35.0538 104.086 34.268 104.125 33.6106L104.132 33.5203L104.229 33.4747C104.35 33.4178 104.455 33.392 104.552 33.392C104.66 33.392 104.757 33.4258 104.831 33.4827C105.031 33.6374 105.023 33.9511 105.016 34.2756C105.016 34.3245 105.012 34.3743 105.012 34.4195C105.012 34.5253 105.023 34.6532 105.031 34.774C105.047 35.0501 105.063 35.3106 105.008 35.4785ZM111.319 35.8405C111.288 35.8278 111.26 35.8175 111.23 35.81C111.184 35.8405 111.101 35.8815 110.989 35.8815C110.943 35.8815 110.896 35.8744 110.849 35.8626L110.718 35.8255L110.711 35.7155C110.675 35.3219 110.694 34.8991 110.714 34.4914C110.733 34.0494 110.756 33.6327 110.711 33.2782C110.688 33.1272 110.61 32.9457 110.176 32.9457C109.719 32.9457 109.145 33.1423 108.905 33.2899L108.681 33.4258L108.576 33.218C108.518 33.1051 108.394 32.9537 107.972 32.9537C107.503 32.9537 106.883 33.1423 106.454 33.3238L106.232 33.4141L106.151 33.2293C106.07 33.0482 105.915 32.9692 105.643 32.9692C105.326 32.9692 104.877 33.0896 104.373 33.305L104.149 33.399L104.072 33.2104C104.025 33.1051 103.924 32.9607 103.571 32.9607C103.181 32.9607 102.704 33.131 102.427 33.2631V33.3351C102.553 33.3454 102.66 33.392 102.742 33.4559C102.978 33.652 102.951 34.0188 102.924 34.3701C102.921 34.4646 102.909 34.5554 102.909 34.6344C102.909 34.7783 102.905 34.9179 102.9 35.0538C102.894 35.3035 102.882 35.5382 102.909 35.7385C102.963 36.0978 103.253 36.2788 103.788 36.2788C103.901 36.2788 104.02 36.2671 104.145 36.252L104.548 36.1956L104.381 36.482C104.225 36.743 103.978 37.0039 103.738 37.2612C103.475 37.5443 103.196 37.8349 103.056 38.1151C102.951 38.33 102.963 38.5228 103.103 38.6865C103.243 38.8478 103.49 38.9541 103.777 38.9611C104.242 38.9658 104.512 38.7274 104.752 38.4664C104.706 38.4547 104.66 38.4471 104.628 38.4471H104.613L104.11 38.5717L104.358 38.2092C104.59 37.8654 104.873 37.54 105.171 37.193C105.233 37.1253 105.287 37.0491 105.349 36.9851C105.426 36.8901 105.512 36.7999 105.597 36.7166C105.876 36.4218 106.162 36.1156 106.209 35.7597C106.248 35.4281 106.232 35.0914 106.216 34.7444C106.202 34.3814 106.19 34.0113 106.232 33.6219L106.24 33.5203L106.36 33.4827C106.422 33.463 106.627 33.4028 106.853 33.4028C107.138 33.4028 107.27 33.5048 107.336 33.5885L107.363 33.6186V33.652C107.414 33.9882 107.402 34.3973 107.387 34.7938C107.375 35.1333 107.363 35.4549 107.391 35.7117C107.444 36.2327 108.084 36.2708 108.282 36.2708C108.696 36.2708 109.084 36.1312 109.258 35.9148L109.533 35.5716L109.648 35.9717C109.711 36.1956 110.052 36.2708 110.354 36.2708C110.54 36.2708 110.733 36.2407 110.889 36.1881C110.916 36.165 110.943 36.1462 110.97 36.1274C111.097 36.0333 111.222 35.9384 111.319 35.8405Z" fill="#8F8F8F"/>
<path fill-rule="evenodd" clip-rule="evenodd" d="M88.2007 37.4192C88.3314 37.2988 88.4988 37.2527 88.7118 37.2757L88.7697 37.2828L88.8158 37.3058C89.0984 37.4718 89.049 37.9557 88.9164 38.1457L88.8858 38.1937L88.8158 38.2205C88.7311 38.2426 88.6385 38.2506 88.5529 38.2506H88.4988H88.3704L88.3126 38.2054C88.1344 38.0799 88.1424 37.873 88.1504 37.6919C88.1504 37.6341 88.1537 37.5856 88.1504 37.5367L88.1461 37.4718L88.2007 37.4192ZM86.9564 36.7284C86.9564 36.9014 86.9536 37.0792 86.9498 37.2456C86.9456 37.5635 86.9414 37.865 86.9564 38.0916C86.9917 38.5412 87.4064 38.7039 87.7822 38.7039C88.0723 38.7039 88.3704 38.6051 88.5759 38.4471L88.7932 38.2769L88.9244 38.4923C89.0025 38.6211 89.2851 38.7109 89.6105 38.7109C89.8734 38.7109 90.1104 38.6512 90.2265 38.5562V38.5294C90.0601 38.5031 90.0163 38.4086 90.0017 38.3634L89.998 38.3329L90.0017 38.3037C90.0243 38.2007 90.0558 38.0991 90.0873 38.0013C90.1452 37.8043 90.2025 37.62 90.1649 37.43C90.0873 37.0792 89.5987 36.9508 89.1647 36.9508C88.9202 36.9508 88.6653 36.9894 88.4443 37.0641L88.1504 37.1554V35.3106L88.2007 35.2664C88.2195 35.2504 88.235 35.2269 88.2543 35.2118C88.3357 35.1258 88.4443 35.0082 88.6728 34.9781L88.7584 34.9663L88.8322 35.0049C89.0025 35.099 89.0721 35.2118 89.1266 35.303C89.1647 35.3557 89.1887 35.4023 89.2348 35.4432C89.428 35.6214 89.7502 35.6501 89.9246 35.6501C90.211 35.6501 90.5134 35.5828 90.7377 35.4723C90.7339 35.4625 90.7302 35.4545 90.7302 35.4465C90.3577 35.3971 90.2458 35.1479 90.1607 34.9631C90.1104 34.8502 90.0638 34.7444 89.9712 34.6724C89.8583 34.5854 89.7191 34.5398 89.5437 34.5398C89.1797 34.5398 88.7542 34.7213 88.4753 34.8422L88.1889 34.9631L88.1504 34.7181C88.1151 34.4726 88.1344 34.1857 88.1504 33.9088C88.1809 33.4742 88.2115 32.9824 87.9952 32.8046C87.9524 32.7712 87.8786 32.7266 87.7121 32.7266C87.4262 32.7266 87.1929 32.8206 86.9498 32.9156C86.7989 32.9758 86.647 33.0364 86.4763 33.0783V33.1234C86.616 33.131 86.8172 33.1733 86.915 33.3233L86.9301 33.3501L86.9338 33.3764C86.9649 33.637 86.9649 33.9276 86.9564 34.2078C86.9536 34.3771 86.9498 34.5474 86.9564 34.7096L86.9649 35.0082L86.5779 34.8347C86.267 34.6988 85.9153 34.5398 85.5316 34.5398C85.5001 34.5398 85.4695 34.5398 85.4389 34.5436C85.1713 34.5633 85.0895 34.6875 84.9583 34.933C84.869 35.0872 84.7683 35.2664 84.5708 35.3943L84.5473 35.4126L84.5125 35.4244C84.474 35.4314 84.4316 35.4432 84.3846 35.4465C84.3846 35.4545 84.3846 35.4625 84.3809 35.4695C84.6132 35.5711 84.8647 35.6586 85.1591 35.6586C85.2061 35.6586 85.2522 35.6586 85.2988 35.6501C85.5781 35.628 85.7366 35.478 85.9219 35.303C86.0422 35.1977 86.1669 35.0839 86.3286 35.0002L86.4612 34.933L86.5821 35.0082C86.6037 35.0275 86.6315 35.0421 86.6592 35.0538C86.7674 35.1149 86.9033 35.1911 86.9498 35.3294C87.0194 35.5302 86.9992 35.8405 86.9804 36.1951C86.9686 36.3691 86.9564 36.5539 86.9564 36.7284Z" fill="#8F8F8F"/>
<path fill-rule="evenodd" clip-rule="evenodd" d="M96.0526 37.8505C95.9825 38.0917 95.7812 38.2507 95.5452 38.2507C95.4788 38.2507 95.4168 38.2394 95.3552 38.2206L95.2931 38.1905L95.2583 38.1458C95.1422 37.9859 95.0758 37.6163 95.231 37.408C95.3472 37.2491 95.5795 37.2001 95.8118 37.2914C96.0648 37.3859 96.1142 37.6422 96.0526 37.8505ZM97.207 38.6245C97.2413 38.5973 97.2649 38.5681 97.2766 38.5295C97.1755 38.5032 97.1219 38.4397 97.1059 38.3753L97.1021 38.3602V38.3414C97.1101 38.2206 97.1257 38.0993 97.1379 37.9944C97.1835 37.6535 97.2145 37.3859 97.0137 37.1893C96.8501 37.0257 96.5247 36.9316 96.149 36.9316C95.9087 36.9316 95.6726 36.966 95.4633 37.0421L95.1779 37.14L95.1614 36.894C95.1454 36.5122 95.1534 36.135 95.1657 35.7678C95.1779 35.3713 95.1882 34.9933 95.1614 34.6378C95.1304 34.2112 94.7895 33.9056 94.4561 33.6037C94.2473 33.4175 94.0342 33.2247 93.9026 33.006L93.7982 32.8325L94.015 32.7798C94.015 32.7648 94.0225 32.7492 94.0225 32.7347C93.9374 32.7427 93.8598 32.7427 93.7751 32.7455C93.3054 32.7568 92.7749 32.7713 92.5741 32.9157C92.4265 33.0173 92.4805 33.1381 92.8332 33.4744C92.9809 33.6145 93.1046 33.7358 93.1398 33.8571L93.1934 34.0264L92.9687 34.057C92.7989 34.0829 92.6588 34.1388 92.5116 34.2L92.3564 34.2602L92.2478 34.1694C92.1011 34.049 91.8993 34.0227 91.7488 34.0227C91.3919 34.0227 90.9931 34.1694 90.8271 34.3509C90.8464 34.3702 90.8619 34.3895 90.8855 34.404C90.9278 34.3895 90.9856 34.374 91.0477 34.374C91.1093 34.374 91.1714 34.3895 91.2222 34.4158L91.3186 34.4647V36.3725C91.3186 36.5874 91.3068 36.807 91.2997 37.0224C91.288 37.4423 91.2687 37.843 91.3186 38.1905C91.3693 38.5714 91.7681 38.7111 92.0851 38.72H92.1086C92.5774 38.72 92.853 38.523 93.0966 38.2577C93.0778 38.254 93.0585 38.2474 93.0387 38.2427C92.9851 38.2812 92.9066 38.3264 92.7904 38.3264C92.7594 38.3264 92.7284 38.3226 92.6978 38.3189L92.5426 38.2892L92.5309 38.159C92.5036 37.4804 92.5036 36.7623 92.5116 36.0589C92.5116 35.6361 92.5196 35.1978 92.5116 34.7666V34.728L92.5309 34.6947C92.7058 34.4116 92.9611 34.2451 93.3134 34.1774L93.4262 34.1543L93.5118 34.2192C94.0578 34.6119 94.0305 35.3713 94.0032 36.1839C93.9957 36.3575 93.9919 36.5357 93.9919 36.7092C93.9919 36.9133 93.9806 37.1169 93.9722 37.313C93.9529 37.676 93.9374 38.0165 93.9877 38.2507C94.061 38.5911 94.4951 38.7111 94.8788 38.7111C95.216 38.7111 95.5409 38.6212 95.7271 38.4769L95.9439 38.3109L96.0756 38.5295C96.1447 38.6513 96.4476 38.7491 96.7462 38.7491C96.9517 38.7491 97.1219 38.704 97.207 38.6245Z" fill="#8F8F8F"/>
<path fill-rule="evenodd" clip-rule="evenodd" d="M100.732 35.9786C100.732 36.0975 100.723 36.2184 100.723 36.3308C100.717 36.5504 100.709 36.7535 100.727 36.9064C100.779 37.2873 101.181 37.457 101.553 37.457C101.735 37.457 101.916 37.4189 102.079 37.3437C102.258 37.2689 102.381 37.1476 102.509 37.0075C102.489 37.0037 102.466 36.9957 102.443 36.9891C102.397 37.0112 102.32 37.0489 102.211 37.0489C102.168 37.0489 102.13 37.0423 102.086 37.0338L101.936 37.0037L101.925 36.8866C101.878 36.5358 101.905 36.1573 101.932 35.7872C101.956 35.3973 101.978 35.031 101.925 34.7362C101.921 34.7258 101.905 34.6793 101.886 34.6454C101.761 34.3741 101.467 34.2481 100.933 34.2481C100.53 34.2481 100.057 34.3242 99.6439 34.3924C99.5141 34.4112 99.3909 34.4343 99.2747 34.4493L99.0349 34.4869L99.0189 34.2937C99.0114 34.139 99.0189 33.9697 99.0189 33.8074C99.0349 33.4105 99.042 32.9605 98.8407 32.7945C98.8021 32.7644 98.7363 32.7263 98.5929 32.7263H98.5854C98.314 32.7263 98.0587 32.8246 97.7873 32.9224C97.6364 32.9798 97.4854 33.0362 97.3223 33.0814V33.1115C97.4624 33.1195 97.5781 33.1608 97.6637 33.2323C97.8725 33.4068 97.8494 33.6861 97.8259 33.9767C97.8104 34.2001 97.7873 34.4728 97.9073 34.5471C97.958 34.5819 98.0474 34.5852 98.2167 34.589C98.2872 34.5923 98.3681 34.5923 98.4537 34.6003L98.8407 34.6224L98.6084 34.8641C98.5463 34.9294 98.4692 34.9816 98.3878 35.0343C98.3023 35.0912 98.2167 35.1476 98.1551 35.2201C97.9265 35.4782 97.9421 36.059 97.958 36.5654C97.9613 36.6976 97.9656 36.8302 97.9656 36.9586C97.9656 37.1095 97.958 37.2609 97.9496 37.4077C97.935 37.8045 97.9148 38.2122 98.0352 38.4018C98.1983 38.6585 98.4847 38.7112 98.7015 38.7112C99.112 38.7112 99.5766 38.5156 99.7821 38.2734C99.7558 38.2616 99.7238 38.2503 99.6975 38.2423C99.6467 38.2734 99.5696 38.3105 99.453 38.3105C99.4144 38.3105 99.3754 38.3035 99.3368 38.2964L99.1628 38.2579L99.1816 38.1182C99.2324 37.7406 99.2014 37.291 99.1699 36.8227C99.1351 36.2974 99.104 35.75 99.1816 35.2807C99.2207 35.047 99.5226 34.8039 99.7666 34.747C99.8564 34.7282 99.942 34.7211 100.035 34.7211C100.345 34.7211 100.6 34.8232 100.689 34.9854C100.785 35.1594 100.762 35.4166 100.743 35.6969C100.739 35.7938 100.732 35.8963 100.732 35.9786Z" fill="#8F8F8F"/>
<path d="M69.9257 18.9194C69.3643 18.9194 68.9297 19.219 68.8536 19.2429C68.7769 19.5171 68.4449 20.5136 68.4449 21.9332L71.2283 21.7588C71.3045 19.9902 70.9217 18.9194 69.9257 18.9194ZM70.0532 16.3039C73.1944 16.3039 74.3945 18.2216 74.3945 22.0579C74.3945 22.6311 74.3945 23.2786 74.3183 23.976H68.4703C68.5465 25.6694 69.211 26.6414 70.6156 26.6414C71.969 26.6414 72.735 26.2181 73.2203 26.2181C73.833 26.2181 74.0884 26.7655 74.063 28.4598C73.2203 28.9329 71.8664 29.3317 69.8999 29.3317C66.1463 29.3317 64.8184 26.5168 64.8184 22.7806C64.8184 19.1188 66.4525 16.3039 70.0532 16.3039Z" fill="#8F8F8F"/>
<path d="M75.4419 16.777H77.0765V15.5313C77.0765 14.2113 77.9446 13.663 80.396 13.8126V16.777H82.8478V19.3178H80.396V25.6205C80.396 26.4425 80.7534 26.7162 81.4178 26.7162C81.928 26.7162 82.4392 26.5911 82.6433 26.4923L82.9245 28.6592C82.4392 28.9583 81.2645 29.3073 79.9365 29.3073C77.9192 29.3073 76.8978 28.2605 76.8978 26.118V19.3178H75.4419V16.777Z" fill="#8F8F8F"/>
<path d="M84.4312 12.6664C84.4312 12.6664 85.3251 12.3428 86.219 12.3428C87.7257 12.3428 87.9298 12.6918 87.9298 14.1862L87.9552 17.6237C88.6451 16.9508 89.8197 16.3038 91.2498 16.3038C93.395 16.3038 94.3144 17.549 94.3144 19.7413V29.0828H90.8411V20.489C90.8411 19.6665 90.5091 19.2188 89.7431 19.2188C88.977 19.2188 88.2877 19.5673 87.9298 19.9402V29.0828H84.4312V12.6664Z" fill="#8F8F8F"/>
<path d="M96.6889 29.083V16.8514C97.1488 16.6525 97.8895 16.5283 98.5535 16.5283C99.9069 16.5283 100.188 16.9012 100.188 18.2212V29.083H96.6889ZM98.8342 11.87C99.9576 11.87 100.418 12.4179 100.418 13.5389C100.418 14.5349 99.779 15.1825 98.1194 15.1825C96.9189 15.1825 96.5356 14.4602 96.5356 13.4886C96.5356 12.4926 97.123 11.87 98.8342 11.87Z" fill="#8F8F8F"/>
<path d="M107.288 26.7161C107.722 26.7161 108.105 26.6169 108.437 26.3926C108.488 26.2181 108.973 24.9226 108.973 22.8051C108.973 19.9902 108.513 18.9683 107.339 18.9683C106.904 18.9683 106.522 19.0685 106.138 19.2429C105.96 19.6417 105.577 20.7374 105.577 22.8051C105.577 25.6454 106.164 26.7161 107.288 26.7161ZM112.446 22.8808C112.446 26.8154 110.837 29.3317 106.828 29.3317C103.764 29.3317 102.104 26.6414 102.104 22.7063C102.104 20.0405 102.768 16.3039 107.67 16.3039C111.093 16.3039 112.446 18.7703 112.446 22.8808Z" fill="#8F8F8F"/>
<path d="M116.43 16.777H118.065V15.5313C118.065 14.2113 118.933 13.663 121.384 13.8126V16.777H123.835V19.3178H121.384V25.6205C121.384 26.4425 121.742 26.7162 122.406 26.7162C122.916 26.7162 123.427 26.5911 123.632 26.4923L123.911 28.6592C123.427 28.9583 122.252 29.3073 120.924 29.3073C118.907 29.3073 117.886 28.2605 117.886 26.118V19.3178H116.43V16.777Z" fill="#8F8F8F"/>
<path d="M129.965 18.9194C129.403 18.9194 128.969 19.219 128.892 19.2429C128.816 19.5171 128.484 20.5136 128.484 21.9332L131.267 21.7588C131.344 19.9902 130.961 18.9194 129.965 18.9194ZM130.092 16.3039C133.233 16.3039 134.434 18.2216 134.434 22.0579C134.434 22.6311 134.434 23.2786 134.357 23.976H128.509C128.586 25.6694 129.25 26.6414 130.654 26.6414C132.008 26.6414 132.774 26.2181 133.259 26.2181C133.872 26.2181 134.127 26.7655 134.102 28.4598C133.259 28.9329 131.906 29.3317 129.939 29.3317C126.185 29.3317 124.857 26.5168 124.857 22.7806C124.857 19.1188 126.492 16.3039 130.092 16.3039Z" fill="#8F8F8F"/>
<path d="M136.35 12.7166C136.81 12.5421 137.575 12.3677 138.188 12.3677C139.568 12.3677 139.848 12.7415 139.848 14.2115V25.6955C139.848 26.3924 140.205 26.7164 140.767 26.7164C141.15 26.7164 141.559 26.6171 141.737 26.5414L141.916 28.7342C141.252 29.0831 140.333 29.3314 139.312 29.3314C137.498 29.3314 136.35 28.3853 136.35 26.193V12.7166Z" fill="#8F8F8F"/>
<path d="M147.713 18.9194C147.151 18.9194 146.717 19.219 146.641 19.2429C146.564 19.5171 146.233 20.5136 146.233 21.9332L149.015 21.7588C149.092 19.9902 148.709 18.9194 147.713 18.9194ZM147.84 16.3039C150.982 16.3039 152.182 18.2216 152.182 22.0579C152.182 22.6311 152.182 23.2786 152.106 23.976H146.257C146.334 25.6694 146.998 26.6414 148.403 26.6414C149.757 26.6414 150.523 26.2181 151.007 26.2181C151.62 26.2181 151.876 26.7655 151.85 28.4598C151.007 28.9329 149.654 29.3317 147.688 29.3317C143.934 29.3317 142.606 26.5168 142.606 22.7806C142.606 19.1188 144.24 16.3039 147.84 16.3039Z" fill="#8F8F8F"/>
<path d="M158.745 16.3041C160.482 16.3041 161.528 16.9013 161.733 17.0513C161.733 18.6949 161.35 19.5672 160.686 19.5672C160.252 19.5672 159.664 19.143 158.796 19.143C158.463 19.143 158.158 19.2187 157.852 19.3429C157.724 19.5672 157.212 20.8618 157.212 22.8552C157.212 25.4213 158.082 26.5668 159.435 26.5668C160.175 26.5668 160.89 26.3425 161.376 26.0938L161.758 28.3354C161.121 28.7836 160.125 29.3314 158.49 29.3314C155.374 29.3314 153.586 27.0653 153.586 22.905C153.586 18.7701 155.349 16.3041 158.745 16.3041Z" fill="#8F8F8F"/>
<path d="M167.836 26.7161C168.27 26.7161 168.653 26.6169 168.985 26.3926C169.037 26.2181 169.522 24.9226 169.522 22.8051C169.522 19.9902 169.061 18.9683 167.887 18.9683C167.454 18.9683 167.07 19.0685 166.687 19.2429C166.509 19.6417 166.125 20.7374 166.125 22.8051C166.125 25.6454 166.712 26.7161 167.836 26.7161ZM172.995 22.8808C172.995 26.8154 171.386 29.3317 167.376 29.3317C164.312 29.3317 162.652 26.6414 162.652 22.7063C162.652 20.0405 163.316 16.3039 168.219 16.3039C171.641 16.3039 172.995 18.7703 172.995 22.8808Z" fill="#8F8F8F"/>
<path d="M174.938 16.6273C175.346 16.4528 176.112 16.3042 176.648 16.3042C177.542 16.3042 177.951 16.4782 178.334 17.7239C178.691 17.375 180.146 16.3042 181.908 16.3042C183.646 16.3042 184.156 17.3247 184.334 17.7738C184.744 17.3496 186.403 16.3042 188.063 16.3042C190.489 16.3042 190.821 17.7982 190.821 20.3888V29.0828H187.373V20.7622C187.373 19.6914 187.322 19.2188 186.377 19.2188C185.79 19.2188 184.821 19.7159 184.59 19.8908V29.0828H181.168V20.7622C181.168 19.6914 181.117 19.2188 180.198 19.2188C179.483 19.2188 178.461 19.841 178.41 19.8908V29.0828H174.938V16.6273Z" fill="#8F8F8F"/>
<path d="M193.104 16.6426H192.405V16.3111H194.248V16.6426H193.548V18.9934H193.104V16.6426Z" fill="#8F8F8F"/>
<path d="M194.875 16.3107H195.494L195.93 17.8884C196.08 18.4212 196.117 18.7687 196.117 18.7687H196.137C196.137 18.7687 196.181 18.4212 196.327 17.8884L196.755 16.3107H197.37L197.645 18.993H197.224L197.091 17.4309C197.047 16.9338 197.039 16.5952 197.039 16.5952H197.021C197.021 16.5952 196.957 16.9616 196.824 17.4309L196.388 18.993H195.862L195.425 17.4309C195.292 16.954 195.227 16.5952 195.227 16.5952H195.202C195.202 16.5952 195.199 16.9338 195.159 17.4309L195.025 18.993H194.6L194.875 16.3107Z" fill="#8F8F8F"/>
<path d="M32.9438 29.1986C34.7947 29.8264 36.4077 30.1541 38.9447 30.4527C46.9991 31.4022 58.8461 27.5254 59.4781 17.0741C58.025 23.7865 49.174 32.7673 32.9438 29.1986Z" fill="#8F8F8F"/>
<path d="M32.9453 29.1997C34.7965 29.8276 36.4097 30.1554 38.947 30.454C47.0027 31.4036 58.8514 27.5263 59.4835 17.0735C58.0302 23.7868 49.1779 32.769 32.9453 29.1997Z" fill="#8F8F8F"/>
<path d="M12.3665 44.1824C20.979 48.6467 37.1593 50.4626 48.3299 42.4879C49.2931 41.7862 49.5875 40.7468 49.2597 39.9627C49.1858 39.7666 49.0396 39.5413 48.8293 39.3687C48.2701 38.881 47.2961 38.6806 45.9331 39.1006C33.5896 42.9079 19.553 38.3321 21.6449 29.1261C21.8429 28.3275 22.1717 27.416 22.507 26.7336C21.0989 26.6819 19.5991 26.7844 17.9595 27.1113C16.3054 27.4414 14.9321 27.9343 13.7864 28.5392C12.2296 29.3599 11.0416 30.3325 10.1631 31.3869C9.8376 31.7787 9.55446 32.1813 9.31084 32.5919C9.30943 32.5938 9.30802 32.5961 9.30708 32.5985C9.3019 32.6074 9.2972 32.6159 9.29203 32.6244C8.28319 34.3485 7.97043 36.2072 8.13881 37.9375C8.13928 37.9451 8.14022 37.9531 8.14116 37.9606C8.14116 37.9634 8.14163 37.9667 8.1421 37.9695C8.3274 39.7901 9.04558 41.4682 10.0445 42.6976C10.1043 42.7701 10.1654 42.8425 10.228 42.9144C10.8728 43.3551 11.5891 43.7798 12.3665 44.1829" fill="#8F8F8F"/>
<path d="M54.8064 6.34048C54.7758 6.31414 54.7438 6.28875 54.7133 6.26241C53.1885 5.61525 51.5701 5.04804 49.8666 4.57114C28.7079 1.71913 12.7952 8.05949 5.4808 16.6898C5.16522 17.1324 4.87362 17.5863 4.59472 18.0458C4.33934 18.4658 4.09572 18.8909 3.87184 19.3236C3.86291 19.3424 3.85162 19.3598 3.84268 19.3782C3.68466 19.6867 3.53415 19.9995 3.39306 20.3151C3.19882 20.7463 3.02762 21.1781 2.87006 21.6103C2.78258 21.8506 2.70075 22.0905 2.62456 22.3308C2.35272 23.1826 2.14577 24.0339 2.00938 24.8823C2.00421 24.9152 2.00138 24.9486 1.99621 24.982C1.96235 25.2017 1.93037 25.4208 1.90544 25.64C1.89933 25.6955 1.89603 25.751 1.88992 25.8074C1.84336 26.2556 1.81185 26.7029 1.80197 27.1483C1.80103 27.1883 1.80244 27.2278 1.80197 27.2673C1.79492 27.7282 1.80479 28.1872 1.83583 28.6439C1.84618 28.7897 1.86217 28.9355 1.87581 29.0818C1.88569 29.1829 1.8918 29.2845 1.90356 29.3856C1.9172 29.507 1.93648 29.6269 1.95294 29.7478C1.96988 29.8724 1.98446 29.998 2.00421 30.1226C2.02584 30.259 2.05359 30.3944 2.07899 30.5304C2.09921 30.6381 2.11614 30.7472 2.13825 30.8544C2.17117 31.0148 2.21021 31.1738 2.24783 31.3332C2.26712 31.415 2.28358 31.4983 2.30427 31.5811C2.35977 31.8012 2.42091 32.0199 2.48534 32.2381C2.49193 32.2588 2.49663 32.28 2.50275 32.3006C2.54178 32.4314 2.58599 32.5598 2.62832 32.6891C2.66359 32.7982 2.69558 32.9069 2.7332 33.0151C2.87618 33.4271 3.0375 33.8348 3.21199 34.2393C3.23786 34.2995 3.2609 34.3602 3.28724 34.4204C3.3291 34.5135 3.37519 34.6061 3.41799 34.6993C3.48195 34.8371 3.54356 34.9753 3.61082 35.1117C3.80647 35.5087 4.02046 35.9 4.24575 36.2875C4.28055 36.3473 4.313 36.4079 4.34827 36.4672C4.43293 36.6088 4.52276 36.7489 4.61071 36.8895C4.66151 36.97 4.70901 37.0513 4.76122 37.1313C5.00202 37.5014 5.25928 37.8659 5.52783 38.2271C5.57722 38.2939 5.62472 38.3621 5.67505 38.4289C5.74512 38.5206 5.81943 38.6104 5.89092 38.7022C5.98546 38.8221 6.07811 38.9425 6.17546 39.0615C6.25448 39.1579 6.33772 39.2529 6.41862 39.3484C6.51315 39.4598 6.6058 39.5718 6.70269 39.6823C7.02204 40.0454 7.35878 40.4014 7.70729 40.7513C7.75244 40.797 7.79571 40.843 7.84133 40.8882C7.93492 40.9808 8.03322 41.0721 8.12869 41.1638C8.23593 41.2668 8.34175 41.3707 8.45133 41.4728C8.59854 41.6087 8.75046 41.7423 8.90143 41.8763C8.96398 41.9314 9.02418 41.9878 9.0872 42.0428C9.24288 42.1773 9.40279 42.31 9.5627 42.4421C9.62666 42.4948 9.68733 42.5484 9.7513 42.6006C9.91356 42.7163 10.0758 42.8151 10.2273 42.9148C10.1647 42.8428 10.1036 42.7704 10.0438 42.698C9.04487 41.4686 8.3267 39.7905 8.14092 37.9699C8.14045 37.967 8.13998 37.9638 8.13998 37.9609C8.13904 37.9534 8.1381 37.9454 8.13763 37.9379C7.96973 36.2076 8.28249 34.3489 9.29132 32.6247C9.29602 32.6162 9.3012 32.6078 9.30637 32.5988C9.30731 32.5965 9.30872 32.5941 9.31013 32.5922C9.55329 32.1817 9.83689 31.7791 10.1624 31.3873C11.0404 30.3328 12.2289 29.3602 13.7852 28.5395C14.9314 27.9347 16.3047 27.4418 17.9583 27.1116C19.5984 26.7848 21.0982 26.6822 22.5059 26.734C26.3535 26.8755 29.5075 28.1727 32.9432 29.1989C32.9441 29.1994 32.9446 29.1994 32.9455 29.1998C49.1776 32.7686 58.0299 23.7869 59.4832 17.0731V17.0722C59.7904 13.2264 58.3107 9.24846 54.8064 6.34048Z" fill="#737373"/>
<path d="M8.90154 41.8762C8.75057 41.7426 8.59818 41.609 8.45144 41.4731C8.34186 41.3711 8.23604 41.2666 8.12833 41.1636C8.03286 41.0719 7.93456 40.9812 7.84097 40.888C7.79535 40.8434 7.75255 40.7968 7.7074 40.7512C7.3589 40.4013 7.02215 40.0452 6.70233 39.6821C6.60544 39.5721 6.51326 39.4597 6.41873 39.3482C6.33783 39.2527 6.25412 39.1582 6.1751 39.0618C6.07775 38.9428 5.98557 38.8219 5.89103 38.702C5.81907 38.6108 5.74476 38.5205 5.67515 38.4287C5.62436 38.362 5.57733 38.2942 5.52747 38.227C5.25939 37.8662 5.00166 37.5013 4.76086 37.1311C4.70912 37.0512 4.66115 36.9698 4.61082 36.8894C4.5224 36.7492 4.43257 36.6091 4.34792 36.467C4.31264 36.4078 4.28066 36.3471 4.24586 36.2874C4.0201 35.8998 3.80658 35.5085 3.61093 35.1116C3.5432 34.9752 3.48206 34.8369 3.4181 34.6991C3.37483 34.606 3.32874 34.5138 3.28688 34.4202C3.26101 34.3605 3.23749 34.2998 3.21163 34.2396C3.03714 33.8347 2.87582 33.4269 2.73331 33.0149C2.69569 32.9072 2.66324 32.7981 2.62796 32.6894C2.58563 32.5596 2.54189 32.4312 2.50286 32.301C2.49674 32.2803 2.49157 32.2591 2.48499 32.2384C2.42102 32.0197 2.35988 31.801 2.30438 31.5809C2.28369 31.4986 2.26723 31.4153 2.24794 31.333C2.20985 31.1736 2.17081 31.0146 2.13789 30.8543C2.11579 30.747 2.09885 30.6379 2.07863 30.5302C2.05323 30.3943 2.02595 30.2593 2.00432 30.1229C1.98457 29.9983 1.96999 29.8727 1.95305 29.7476C1.93612 29.6267 1.91684 29.5068 1.9032 29.3855C1.89191 29.2848 1.88533 29.1832 1.87592 29.0816C1.86181 28.9354 1.84582 28.79 1.83595 28.6438C1.80443 28.1876 1.79503 27.7281 1.80161 27.2671C1.80208 27.2276 1.80067 27.1886 1.80161 27.1486C1.81196 26.7028 1.843 26.2555 1.89003 25.8073C1.89568 25.7513 1.89897 25.6958 1.90555 25.6403C1.93048 25.4211 1.96199 25.2015 1.99585 24.9819C2.00103 24.9489 2.00432 24.9151 2.00949 24.8822C2.14589 24.0337 2.35236 23.1824 2.6242 22.3307C2.70039 22.0908 2.78223 21.8505 2.87018 21.6101C3.02773 21.1779 3.19893 20.7462 3.3927 20.3149C3.53427 19.9988 3.6843 19.6865 3.84232 19.378C3.85173 19.3597 3.86255 19.3423 3.87195 19.3239C4.09536 18.8908 4.33945 18.4661 4.59483 18.0456C4.87373 17.5861 5.16533 17.1327 5.48091 16.6897C5.6761 16.3967 5.87645 16.1079 6.08292 15.8234C14.5712 4.11477 32.3018 -0.265301 49.2831 4.40731C49.4778 4.46046 49.672 4.51501 49.8667 4.57145C51.5702 5.04789 53.1881 5.61509 54.7129 6.26225C48.9388 1.40809 40.4957 -0.536678 30.5146 0.12553C11.9276 1.35542 -1.65899 13.563 0.163964 27.3899C0.545862 30.2885 1.58338 33.0276 3.14296 35.5358C4.51347 37.7378 6.2988 39.7964 8.39595 41.5587C8.82394 41.9049 9.29943 42.2774 9.7514 42.6005L9.74999 42.5995C9.6865 42.5478 9.62583 42.4942 9.56234 42.442C9.40243 42.3098 9.24299 42.1776 9.08732 42.0427C9.02429 41.9876 8.96409 41.9312 8.90154 41.8762Z" fill="#8F8F8F"/>
<path d="M6.08296 15.8236C5.87697 16.1077 5.67614 16.3969 5.48096 16.6899C12.7949 8.0596 28.7076 1.71924 49.8668 4.57125C49.6725 4.51528 49.4783 4.46072 49.2836 4.40758C32.3018 -0.265038 14.5713 4.11457 6.08296 15.8236Z" fill="#8F8F8F"/>
<path d="M26.1707 27.1525C19.3268 25.4415 13.3384 28.5783 11.1997 31.43C13.3384 30.0041 17.901 28.7209 21.8933 29.2912L26.1707 27.1525Z" fill="#8F8F8F"/>
</svg>
