<svg width="175" height="41" viewBox="0 0 175 41" fill="none" xmlns="http://www.w3.org/2000/svg">
<path d="M8.06047 0.0537452C11.3828 -0.318518 13.2636 1.269 14.6623 4.01081C18.1722 10.8909 21.8341 17.6933 25.4339 24.5276C25.5624 24.7715 25.6697 25.0305 25.9846 25.0877C27.8943 22.8197 27.866 22.0211 26.4488 19.4057C23.248 13.4987 20.1484 7.53683 17.0159 1.59297C16.8513 1.28068 16.6116 0.964948 16.8011 0.44243C25.3728 0.44243 33.9841 0.44243 42.8861 0.44243C41.1886 4.09591 39.3501 7.39735 37.4555 10.7467C36.3842 10.1293 36.2029 9.16032 35.7368 8.41824C34.9608 7.18274 34.2686 5.8888 33.6217 4.57968C33.0022 3.32632 32.083 3.00788 30.7938 3.41462C30.5256 4.26725 31.1351 4.82053 31.4532 5.43371C32.5892 7.62327 33.7834 9.78252 34.9408 11.9611C35.5371 13.0837 35.5901 14.2823 35.0089 15.3855C32.3252 20.4793 29.5782 25.5396 26.877 30.6243C25.5469 33.1281 24.2711 35.6608 22.9619 38.1758C22.5921 38.8862 22.2885 39.6604 21.3231 40.1601C14.2465 26.863 7.20393 13.6298 0 0.0934558C2.88872 0.254783 5.42322 0.582971 8.06047 0.0537452Z" fill="#79D559"/>
<path d="M56.3279 11.7087V9.37735H72.605V11.7087H65.7805V31.0801H63.1524V11.7087H56.3279ZM80.7859 31.4192C79.2175 31.4192 77.8646 31.073 76.7272 30.3807C75.5969 29.6813 74.7244 28.7063 74.1097 27.4559C73.5022 26.1984 73.1984 24.736 73.1984 23.0687C73.1984 21.4015 73.5022 19.932 74.1097 18.6604C74.7244 17.3816 75.5792 16.3855 76.6742 15.672C77.7763 14.9514 79.0621 14.5911 80.5315 14.5911C81.3793 14.5911 82.2165 14.7324 83.043 15.015C83.8696 15.2976 84.622 15.7568 85.3002 16.3926C85.9784 17.0213 86.5189 17.855 86.9216 18.8935C87.3242 19.932 87.5256 21.2107 87.5256 22.7296V23.7893H74.9787V21.6275H84.9823C84.9823 20.7091 84.7986 19.8896 84.4313 19.169C84.071 18.4484 83.5552 17.8797 82.8841 17.4629C82.22 17.0461 81.4358 16.8377 80.5315 16.8377C79.5354 16.8377 78.6735 17.0849 77.9459 17.5795C77.2253 18.0669 76.6707 18.7027 76.2821 19.4869C75.8936 20.2711 75.6993 21.1118 75.6993 22.009V23.4502C75.6993 24.6795 75.9112 25.7215 76.3351 26.5763C76.7661 27.4241 77.363 28.0705 78.126 28.5156C78.889 28.9536 79.7756 29.1726 80.7859 29.1726C81.4429 29.1726 82.0363 29.0808 82.5662 28.8971C83.1031 28.7063 83.5658 28.4238 83.9544 28.0493C84.3429 27.6678 84.6432 27.1945 84.8551 26.6293L87.2713 27.3075C87.0169 28.127 86.5895 28.8476 85.989 29.4693C85.3885 30.084 84.6467 30.5644 83.7636 30.9105C82.8806 31.2496 81.888 31.4192 80.7859 31.4192ZM93.8308 9.37735V31.0801H91.3299V9.37735H93.8308ZM105.236 31.4192C103.668 31.4192 102.315 31.073 101.177 30.3807C100.047 29.6813 99.1744 28.7063 98.5598 27.4559C97.9522 26.1984 97.6484 24.736 97.6484 23.0687C97.6484 21.4015 97.9522 19.932 98.5598 18.6604C99.1744 17.3816 100.029 16.3855 101.124 15.672C102.226 14.9514 103.512 14.5911 104.982 14.5911C105.829 14.5911 106.666 14.7324 107.493 15.015C108.32 15.2976 109.072 15.7568 109.75 16.3926C110.428 17.0213 110.969 17.855 111.372 18.8935C111.774 19.932 111.976 21.2107 111.976 22.7296V23.7893H99.4287V21.6275H109.432C109.432 20.7091 109.249 19.8896 108.881 19.169C108.521 18.4484 108.005 17.8797 107.334 17.4629C106.67 17.0461 105.886 16.8377 104.982 16.8377C103.985 16.8377 103.124 17.0849 102.396 17.5795C101.675 18.0669 101.121 18.7027 100.732 19.4869C100.344 20.2711 100.149 21.1118 100.149 22.009V23.4502C100.149 24.6795 100.361 25.7215 100.785 26.5763C101.216 27.4241 101.813 28.0705 102.576 28.5156C103.339 28.9536 104.226 29.1726 105.236 29.1726C105.893 29.1726 106.486 29.0808 107.016 28.8971C107.553 28.7063 108.016 28.4238 108.404 28.0493C108.793 27.6678 109.093 27.1945 109.305 26.6293L111.721 27.3075C111.467 28.127 111.04 28.8476 110.439 29.4693C109.839 30.084 109.097 30.5644 108.214 30.9105C107.331 31.2496 106.338 31.4192 105.236 31.4192ZM124.512 31.0801V9.37735H132.099C133.611 9.37735 134.858 9.63874 135.84 10.1615C136.822 10.6773 137.553 11.3731 138.034 12.2491C138.514 13.1181 138.754 14.0824 138.754 15.1421C138.754 16.0747 138.588 16.8447 138.256 17.4523C137.931 18.0599 137.5 18.5403 136.963 18.8935C136.434 19.2467 135.858 19.5081 135.236 19.6777V19.8896C135.9 19.932 136.568 20.1651 137.239 20.589C137.91 21.0129 138.472 21.6205 138.924 22.4117C139.376 23.2029 139.602 24.1708 139.602 25.3153C139.602 26.4033 139.355 27.3817 138.86 28.2507C138.366 29.1196 137.585 29.8084 136.518 30.3171C135.452 30.8257 134.063 31.0801 132.354 31.0801H124.512ZM127.14 28.7487H132.354C134.07 28.7487 135.289 28.4167 136.01 27.7526C136.737 27.0815 137.101 26.269 137.101 25.3153C137.101 24.5806 136.914 23.9024 136.54 23.2807C136.165 22.6519 135.632 22.1503 134.939 21.7759C134.247 21.3944 133.428 21.2036 132.481 21.2036H127.14V28.7487ZM127.14 18.9147H132.015C132.806 18.9147 133.519 18.7593 134.155 18.4484C134.798 18.1376 135.307 17.6996 135.681 17.1344C136.063 16.5692 136.253 15.9051 136.253 15.1421C136.253 14.1884 135.921 13.3795 135.257 12.7154C134.593 12.0443 133.541 11.7087 132.099 11.7087H127.14V18.9147ZM153.839 24.4251V14.803H156.34V31.0801H153.839V28.3248H153.67C153.288 29.1514 152.695 29.8544 151.889 30.4337C151.084 31.0059 150.067 31.292 148.837 31.292C147.82 31.292 146.916 31.0695 146.125 30.6244C145.333 30.1723 144.712 29.4941 144.259 28.5898C143.807 27.6784 143.581 26.5304 143.581 25.1457V14.803H146.082V24.9762C146.082 26.1631 146.414 27.1097 147.078 27.8162C147.749 28.5227 148.604 28.8759 149.643 28.8759C150.264 28.8759 150.897 28.7169 151.54 28.399C152.19 28.0811 152.734 27.5937 153.172 26.9366C153.617 26.2796 153.839 25.4425 153.839 24.4251ZM172.45 18.4484L170.204 19.0842C170.062 18.7098 169.854 18.346 169.578 17.9927C169.31 17.6324 168.943 17.3357 168.476 17.1026C168.01 16.8695 167.413 16.7529 166.685 16.7529C165.689 16.7529 164.859 16.9825 164.195 17.4417C163.538 17.8938 163.21 18.4696 163.21 19.169C163.21 19.7907 163.436 20.2817 163.888 20.642C164.34 21.0023 165.046 21.3025 166.007 21.5427L168.423 22.1362C169.879 22.4894 170.963 23.0299 171.677 23.7575C172.39 24.4781 172.747 25.4071 172.747 26.5445C172.747 27.4771 172.478 28.3107 171.942 29.0454C171.412 29.7802 170.67 30.3595 169.716 30.7834C168.762 31.2072 167.653 31.4192 166.389 31.4192C164.729 31.4192 163.354 31.0589 162.266 30.3383C161.179 29.6177 160.49 28.565 160.2 27.1804L162.574 26.5869C162.8 27.463 163.227 28.12 163.856 28.558C164.492 28.996 165.322 29.215 166.346 29.215C167.512 29.215 168.437 28.9677 169.123 28.4732C169.815 27.9716 170.161 27.3711 170.161 26.6717C170.161 26.1065 169.963 25.6332 169.568 25.2517C169.172 24.8632 168.565 24.5735 167.745 24.3828L165.032 23.7469C163.542 23.3937 162.447 22.8462 161.747 22.1044C161.055 21.3555 160.709 20.4195 160.709 19.2962C160.709 18.3778 160.967 17.5653 161.482 16.8589C162.005 16.1524 162.715 15.5978 163.612 15.1951C164.517 14.7924 165.541 14.5911 166.685 14.5911C168.296 14.5911 169.561 14.9443 170.479 15.6508C171.405 16.3573 172.062 17.2898 172.45 18.4484Z" fill="#79D559"/>
</svg>
