<svg width="32" height="32" viewBox="0 0 32 32" fill="none" xmlns="http://www.w3.org/2000/svg">
<g clip-path="url(#clip0_1_2194)">
<path d="M25.7552 5.53273C18.0349 2.6376 10.9757 4.42695 7.9599 6.13588C5.54497 7.50434 2.22996 9.75479 1.32756 14.58C0.42283 31.7698 21.5303 28.7541 25.1521 25.4367C26.7246 23.9964 24.8505 23.6273 24.2473 23.6273C23.7648 23.6273 22.2368 24.0294 21.5331 24.2304C14.6747 24.4264 12.3921 21.983 11.9382 20.035C11.7614 19.2762 12.2963 18.5953 12.9932 18.2468L13.277 18.1049C13.9218 17.7825 14.6854 17.7762 15.3557 18.0414C30.7862 24.148 35.1929 9.07185 25.7552 5.53273Z" stroke="#49E613" stroke-width="2.664"/>
</g>
<defs>
<clipPath id="clip0_1_2194">
<rect width="32" height="32" fill="white"/>
</clipPath>
</defs>
</svg>
