<svg width="124" height="124" viewBox="0 0 124 124" fill="none" xmlns="http://www.w3.org/2000/svg">
<path d="M40.333 55.1113C40.3331 61.1142 42.4462 66.2489 46.6543 70.457C50.8625 74.6651 55.9971 76.7773 62 76.7773C68.0029 76.7773 73.1375 74.6651 77.3457 70.457C81.5538 66.2489 83.6669 61.1142 83.667 55.1113V12.7773H40.333V55.1113ZM95.4443 55.1572L96.7842 54.6738C101.103 53.1141 104.598 50.4935 107.244 46.8232C109.894 43.1472 111.223 39.0106 111.223 34.4443V26.5557H95.4443V55.1572ZM12.7773 34.4443C12.7773 39.0149 14.1059 43.1538 16.7559 46.8301C19.4018 50.5006 22.8973 53.1188 27.2168 54.6738L28.5557 55.1562V26.5557H12.7773V34.4443ZM56.1113 88.0664L55.3301 87.8906C49.8475 86.6598 44.9634 84.3433 40.666 80.9395C36.3876 77.5506 33.2494 73.3023 31.2422 68.1797L31.0244 67.623L30.4307 67.5518L29.6494 67.4492C21.6263 66.3165 14.9043 62.7074 9.44629 56.6006C3.81504 50.2999 1.00456 42.93 1 34.4443V27.5557L1.01465 26.9014C1.16046 23.6626 2.40007 20.889 4.75684 18.5361C7.11473 16.1822 9.89 14.9422 13.126 14.793L13.7793 14.7773H28.5557V13.7773C28.5558 10.2564 29.7988 7.26838 32.3125 4.75879C34.6704 2.40488 37.4456 1.16485 40.6816 1.01562L41.335 1H82.667C86.1881 1.00008 89.1789 2.24336 91.6934 4.75781C94.2079 7.27231 95.4486 10.2605 95.4443 13.7764L95.4434 14.7773H110.223C113.744 14.7774 116.735 16.0208 119.249 18.5352C121.764 21.0497 123.004 24.0388 123 27.5547V34.4443C123 42.925 120.19 50.2951 114.554 56.6006C108.915 62.9092 101.934 66.552 93.5703 67.5518L92.9756 67.623L92.7578 68.1797C90.7552 73.2974 87.6194 77.5459 83.3408 80.9395C79.0438 84.3476 74.1576 86.6644 68.6709 87.8906L67.8887 88.0654V111.223H89.5557C91.2549 111.223 92.6336 111.787 93.7598 112.913C94.8858 114.039 95.4483 115.415 95.4443 117.108C95.4403 118.804 94.8753 120.186 93.751 121.318C92.7009 122.376 91.428 122.936 89.875 122.995L89.5605 123H34.4443C32.7451 123 31.3691 122.435 30.248 121.311C29.1249 120.183 28.5597 118.804 28.5557 117.108C28.5517 115.416 29.1149 114.04 30.2451 112.914C31.3773 111.786 32.7555 111.223 34.4443 111.223H56.1113V88.0664Z" fill="#49E613" stroke="#2E3F32" stroke-width="2"/>
</svg>
