<svg width="124" height="124" viewBox="0 0 124 124" fill="none" xmlns="http://www.w3.org/2000/svg">
<path d="M87.8342 108.5V98.1667C87.8342 92.6855 85.6568 87.4289 81.781 83.5531C77.9053 79.6774 72.6486 77.5 67.1675 77.5H25.8341C20.353 77.5 15.0964 79.6774 11.2206 83.5531C7.34486 87.4289 5.16748 92.6855 5.16748 98.1667V108.5" stroke="#49E613" stroke-width="10.3333" stroke-linecap="round" stroke-linejoin="round"/>
<path d="M46.4992 56.8333C57.9131 56.8333 67.1659 47.5806 67.1659 36.1667C67.1659 24.7528 57.9131 15.5 46.4992 15.5C35.0853 15.5 25.8325 24.7528 25.8325 36.1667C25.8325 47.5806 35.0853 56.8333 46.4992 56.8333Z" stroke="#49E613" stroke-width="10.3333" stroke-linecap="round" stroke-linejoin="round"/>
<path d="M118.833 108.5V98.1666C118.829 93.5876 117.305 89.1393 114.5 85.5203C111.694 81.9012 107.766 79.3164 103.333 78.1716" stroke="#49E613" stroke-width="10.3333" stroke-linecap="round" stroke-linejoin="round"/>
<path d="M82.6675 16.1716C87.113 17.3099 91.0532 19.8953 93.8669 23.5202C96.6807 27.1452 98.208 31.6036 98.208 36.1925C98.208 40.7813 96.6807 45.2397 93.8669 48.8647C91.0532 52.4897 87.113 55.0751 82.6675 56.2133" stroke="#49E613" stroke-width="10.3333" stroke-linecap="round" stroke-linejoin="round"/>
</svg>
