<svg width="93" height="56" viewBox="0 0 93 56" fill="none" xmlns="http://www.w3.org/2000/svg">
<path d="M23.2109 28.5254C28.804 28.5254 32.8424 29.8224 36.0254 31.6543C38.8273 33.2669 40.9943 35.3067 43.0107 37.334L43.8662 38.2012L43.8711 38.2061C46.6006 40.9378 49.326 43.6944 53.0996 44.6387C56.3638 45.4554 59.4536 45.2655 62.3438 44.04C64.1996 43.2531 65.9466 42.0473 67.5957 40.4463C66.029 44.6105 63.7894 47.8166 60.9043 50.1064C57.2153 53.0343 52.3863 54.5332 46.3535 54.5332C40.7606 54.5332 36.7231 53.2359 33.541 51.3965C30.74 49.7773 28.5729 47.7238 26.5576 45.6719L25.7021 44.7939L25.6934 44.7852L24.668 43.7627C22.2662 41.392 19.7668 39.1778 16.4648 38.3516L16.4561 38.3496C13.1936 37.5689 10.1065 37.7773 7.21875 39.0107C5.36328 39.8033 3.61516 41.0099 1.96582 42.6123C3.52813 38.4467 5.7573 35.2407 8.63574 32.9512C12.3155 30.0243 17.1436 28.5254 23.2109 28.5254ZM46.3535 0.838867C51.9812 0.838867 56.0371 2.13723 59.2373 3.96973C62.4573 5.81357 64.8466 8.21488 67.1494 10.5195C69.879 13.2513 72.6042 16.0079 76.3779 16.9521C79.6099 17.7693 82.6826 17.5789 85.5635 16.3535C87.4131 15.5668 89.1578 14.362 90.8057 12.7617C89.239 16.9252 86.999 20.1304 84.1143 22.4199C80.4253 25.3477 75.5972 26.8467 69.5645 26.8467C63.9712 26.8467 59.9332 25.5495 56.751 23.71C53.5501 21.8596 51.178 19.4418 48.9131 17.1074L48.9043 17.0986L47.8789 16.0771C45.4769 13.7062 42.9771 11.4922 39.6748 10.666L39.667 10.6641L39.0576 10.5293C36.0195 9.91317 33.1372 10.1678 30.4297 11.3242C28.5737 12.117 26.8246 13.3237 25.1748 14.9268C26.7369 10.7605 28.9663 7.55446 31.8389 5.26465C35.5104 2.33796 40.3211 0.838911 46.3535 0.838867Z" stroke="#8F8F8F" stroke-width="1.67795"/>
</svg>
