<svg width="32" height="27" viewBox="0 0 32 27" fill="none" xmlns="http://www.w3.org/2000/svg">
<path d="M25.7552 2.86476C18.0349 -0.0303706 10.9757 1.75898 7.9599 3.46791C5.54497 4.83637 2.22996 7.08682 1.32756 11.912C0.42283 29.1019 21.5303 26.0861 25.1521 22.7688C26.7246 21.3284 24.8505 20.9593 24.2473 20.9593C23.7648 20.9593 22.2368 21.3614 21.5331 21.5625C14.6747 21.7584 12.3921 19.315 11.9382 17.367C11.7614 16.6082 12.2963 15.9273 12.9932 15.5788L13.277 15.437C13.9218 15.1146 14.6854 15.1082 15.3557 15.3735C30.7862 21.48 35.1929 6.40388 25.7552 2.86476Z" stroke="#49E613" stroke-width="2.664"/>
</svg>
